<svg xmlns="http://www.w3.org/2000/svg" xmlns:xlink="http://www.w3.org/1999/xlink" viewBox="0 0 430 430" width="430" height="430" preserveAspectRatio="xMidYMid meet" style="width: 100%; height: 100%; transform: translate3d(0px, 0px, 0px); content-visibility: visible;"><defs><clipPath id="__lottie_element_2577"><rect width="430" height="430" x="0" y="0"/></clipPath><clipPath id="__lottie_element_2579"><path d="M0,0 L430,0 L430,430 L0,430z"/></clipPath><clipPath id="__lottie_element_2587"><path d="M0,0 L430,0 L430,430 L0,430z"/></clipPath><g id="__lottie_element_2590"><g transform="matrix(0.9944058656692505,-0.10562655329704285,0.10562655329704285,0.9944058656692505,-92.09868621826172,-3.4226326942443848)" opacity="1" style="display: none;"><g opacity="1" transform="matrix(1,0,0,1,250,249.75999450683594)"><path fill="rgb(255,0,0)" fill-opacity="1" d=" M26.690000534057617,-186.57000732421875 C26.690000534057617,-186.57000732421875 -133.42999267578125,-186.57000732421875 -133.42999267578125,-186.57000732421875 C-133.42999267578125,-186.57000732421875 -133.42999267578125,186.57000732421875 -133.42999267578125,186.57000732421875 C-133.42999267578125,186.57000732421875 133.42999267578125,186.57000732421875 133.42999267578125,186.57000732421875 C133.42999267578125,186.57000732421875 133.42999267578125,-79.81999969482422 133.42999267578125,-79.81999969482422 C133.42999267578125,-79.81999969482422 26.690000534057617,-186.57000732421875 26.690000534057617,-186.57000732421875z"/></g></g></g><filter id="__lottie_element_2596" filterUnits="objectBoundingBox" x="0%" y="0%" width="100%" height="100%"><feComponentTransfer in="SourceGraphic"><feFuncA type="table" tableValues="1.0 0.0"/></feComponentTransfer></filter><mask id="__lottie_element_2590_2" mask-type="alpha"><g filter="url(#__lottie_element_2596)"><rect width="430" height="430" x="0" y="0" fill="#ffffff" opacity="0"/><use xmlns:ns1="http://www.w3.org/1999/xlink" ns1:href="#__lottie_element_2590"/></g></mask><clipPath id="__lottie_element_2784"><path d="M0,0 L430,0 L430,430 L0,430z"/></clipPath></defs><g clip-path="url(#__lottie_element_2577)"><g clip-path="url(#__lottie_element_2579)" transform="matrix(1,0,0,1,0,0)" opacity="1" style="display: block;"><g transform="matrix(0.996711254119873,0.08103486150503159,-0.08103486150503159,0.996711254119873,0.644866943359375,-61.975433349609375)" opacity="1" style="display: block;"><path stroke-linecap="round" stroke-linejoin="round" fill-opacity="0" class="secondary" stroke="rgb(235,230,239)" stroke-opacity="1" stroke-width="7" d=" M276.69,63.19 C276.69,63.19 116.57,63.19 116.57,63.19 C116.57,63.19 116.57,436.33 116.57,436.33 C116.57,436.33 383.43,436.33 383.43,436.33 C383.43,436.33 383.43,169.94 383.43,169.94 C383.43,169.94 276.69,63.19 276.69,63.19z M116.82,63.19 C116.82,63.19 116.82,436.14 116.82,436.14 C116.82,436.14 383.43,436.14 383.43,436.14"/><path class="secondary" fill="rgb(235,230,239)" fill-opacity="1" d=" M276.69,63.19 C276.69,63.19 116.57,63.19 116.57,63.19 C116.57,63.19 116.57,436.33 116.57,436.33 C116.57,436.33 383.43,436.33 383.43,436.33 C383.43,436.33 383.43,169.94 383.43,169.94 C383.43,169.94 276.69,63.19 276.69,63.19z M116.82,63.19 C116.82,63.19 116.82,436.14 116.82,436.14 C116.82,436.14 383.43,436.14 383.43,436.14"/><g opacity="1" transform="matrix(1,0,0,1,250,249.75999450683594)"/><g opacity="0" transform="matrix(1,0,0,1,330.05999755859375,116.56700134277344)"/></g><g clip-path="url(#__lottie_element_2784)" transform="matrix(0.996711254119873,0.08103486150503159,-0.08103486150503159,0.996711254119873,32.69354248046875,-24.25432014465332)" opacity="1" style="display: block;"><g transform="matrix(1,0,0,1,215,241.68699645996094)" opacity="1" style="display: block;"><g opacity="1" transform="matrix(1,0,0,1,0,0)"><path stroke-linecap="round" stroke-linejoin="round" fill-opacity="0" class="primary" stroke="rgb(8,168,138)" stroke-opacity="1" stroke-width="7" d=" M-80.05999755859375,0 C-80.05999755859375,0 80.05999755859375,0 80.05999755859375,0"/></g></g><g transform="matrix(1,0,0,1,215,295.05999755859375)" opacity="1" style="display: block;"><g opacity="1" transform="matrix(1,0,0,1,0,0)"><path stroke-linecap="round" stroke-linejoin="round" fill-opacity="0" class="primary" stroke="rgb(8,168,138)" stroke-opacity="1" stroke-width="7" d=" M-80.05999755859375,0 C-80.05999755859375,0 77.0905990600586,0.001113526406697929 77.0905990600586,0.001113526406697929"/></g></g><g transform="matrix(1,0,0,1,215,348.4330139160156)" opacity="1" style="display: block;"><g opacity="1" transform="matrix(1,0,0,1,0,0)"><path stroke-linecap="round" stroke-linejoin="round" fill-opacity="0" class="primary" stroke="rgb(8,168,138)" stroke-opacity="1" stroke-width="7" d=" M-80.05999755859375,0 C-80.05999755859375,0 52.041263580322266,0.07582570612430573 52.041263580322266,0.07582570612430573"/></g></g></g><g mask="url(#__lottie_element_2590_2)" style="display: none;"><g clip-path="url(#__lottie_element_2587)" transform="matrix(0.9944058656692505,-0.10562655329704285,0.10562655329704285,0.9944058656692505,-52.603145599365234,27.579015731811523)" opacity="1"><g transform="matrix(1,0,0,1,215,241.68699645996094)" opacity="1" style="display: block;"><g opacity="1" transform="matrix(1,0,0,1,0,0)"><path stroke-linecap="round" stroke-linejoin="round" fill-opacity="0" class="primary" stroke="rgb(8,168,138)" stroke-opacity="1" stroke-width="7" d=" M-80.05999755859375,0 C-80.05999755859375,0 80.05999755859375,0 80.05999755859375,0"/></g></g><g transform="matrix(1,0,0,1,215,295.05999755859375)" opacity="1" style="display: block;"><g opacity="1" transform="matrix(1,0,0,1,0,0)"><path stroke-linecap="round" stroke-linejoin="round" fill-opacity="0" class="primary" stroke="rgb(8,168,138)" stroke-opacity="1" stroke-width="7" d=" M-80.05999755859375,0 C-80.05999755859375,0 80.05999755859375,0 80.05999755859375,0"/></g></g><g transform="matrix(1,0,0,1,215,348.4330139160156)" opacity="1" style="display: block;"><g opacity="1" transform="matrix(1,0,0,1,0,0)"><path stroke-linecap="round" stroke-linejoin="round" fill-opacity="0" class="primary" stroke="rgb(8,168,138)" stroke-opacity="1" stroke-width="7" d=" M-80.05999755859375,0 C-80.05999755859375,0 80.05999755859375,0 80.05999755859375,0"/></g></g></g></g><g transform="matrix(0.9944058656692505,-0.10562655329704285,0.10562655329704285,0.9944058656692505,-92.09868621826172,-3.4226326942443848)" opacity="0.0019354838709688238" style="mix-blend-mode: multiply; display: none;"><g opacity="1" transform="matrix(1,0,0,1,250,249.75999450683594)"><path stroke-linecap="round" stroke-linejoin="round" fill-opacity="0" class="secondary" stroke="rgb(235,230,239)" stroke-opacity="1" stroke-width="7" d=" M26.690000534057617,-186.57000732421875 C26.690000534057617,-186.57000732421875 -133.42999267578125,-186.57000732421875 -133.42999267578125,-186.57000732421875 C-133.42999267578125,-186.57000732421875 -133.42999267578125,186.57000732421875 -133.42999267578125,186.57000732421875 C-133.42999267578125,186.57000732421875 133.42999267578125,186.57000732421875 133.42999267578125,186.57000732421875 C133.42999267578125,186.57000732421875 133.42999267578125,-79.81999969482422 133.42999267578125,-79.81999969482422 C133.42999267578125,-79.81999969482422 26.690000534057617,-186.57000732421875 26.690000534057617,-186.57000732421875z"/><path class="secondary" fill="rgb(235,230,239)" fill-opacity="1" d=" M26.690000534057617,-186.57000732421875 C26.690000534057617,-186.57000732421875 -133.42999267578125,-186.57000732421875 -133.42999267578125,-186.57000732421875 C-133.42999267578125,-186.57000732421875 -133.42999267578125,186.57000732421875 -133.42999267578125,186.57000732421875 C-133.42999267578125,186.57000732421875 133.42999267578125,186.57000732421875 133.42999267578125,186.57000732421875 C133.42999267578125,186.57000732421875 133.42999267578125,-79.81999969482422 133.42999267578125,-79.81999969482422 C133.42999267578125,-79.81999969482422 26.690000534057617,-186.57000732421875 26.690000534057617,-186.57000732421875z"/></g></g><g transform="matrix(0.996711254119873,0.08103486150503159,-0.08103486150503159,0.996711254119873,0.644866943359375,-61.975433349609375)" opacity="1" style="mix-blend-mode: multiply; display: block;"><g opacity="1" transform="matrix(1,0,0,1,330.05999755859375,116.56700134277344)"><path stroke-linecap="round" stroke-linejoin="round" fill-opacity="0" class="secondary" stroke="rgb(235,230,239)" stroke-opacity="1" stroke-width="7" d=" M-53.37300109863281,-53.37300109863281 C-53.37300109863281,-53.37300109863281 53.37300109863281,53.37300109863281 53.37300109863281,53.37300109863281 M-53.37300109863281,-53.37300109863281 C-53.37300109863281,-53.37300109863281 -53.09694290161133,44.65279769897461 -48.947391510009766,48.8638916015625 C-44.74615478515625,53.12750244140625 53.37300109863281,53.37300109863281 53.37300109863281,53.37300109863281"/><path class="secondary" fill="rgb(235,230,239)" fill-opacity="1" d=" M-53.37300109863281,-53.37300109863281 C-53.37300109863281,-53.37300109863281 53.37300109863281,53.37300109863281 53.37300109863281,53.37300109863281 M-53.37300109863281,-53.37300109863281 C-53.37300109863281,-53.37300109863281 -53.09694290161133,44.65279769897461 -48.947391510009766,48.8638916015625 C-44.74615478515625,53.12750244140625 53.37300109863281,53.37300109863281 53.37300109863281,53.37300109863281"/></g></g></g></g></svg>