<svg xmlns="http://www.w3.org/2000/svg" xmlns:xlink="http://www.w3.org/1999/xlink" viewBox="0 0 430 430" width="430" height="430" preserveAspectRatio="xMidYMid meet" style="width: 100%; height: 100%; transform: translate3d(0px, 0px, 0px); content-visibility: visible;"><defs><clipPath id="__lottie_element_2908"><rect width="430" height="430" x="0" y="0"/></clipPath><clipPath id="__lottie_element_2910"><path d="M0,0 L430,0 L430,430 L0,430z"/></clipPath></defs><g clip-path="url(#__lottie_element_2908)"><g clip-path="url(#__lottie_element_2910)" transform="matrix(1,0,0,1,0,0)" opacity="1" style="display: block;"><g transform="matrix(0.9996395111083984,0,0,1.0003604888916016,130,260.2086486816406)" opacity="1" style="display: block;"><g opacity="1" transform="matrix(1,0,0,1,0,0)"><path class="secondary" fill="rgb(255,199,56)" fill-opacity="1" d=" M48.85300064086914,35.2859992980957 C68.18299865722656,35.2859992980957 83.85299682617188,19.615999221801758 83.85299682617188,0.28600001335144043 C83.85299682617188,-19.04400062561035 68.18299865722656,-34.7140007019043 48.85300064086914,-34.7140007019043 C29.523000717163086,-34.7140007019043 13.852999687194824,-19.04400062561035 13.852999687194824,0.28600001335144043 C13.852999687194824,19.615999221801758 29.523000717163086,35.2859992980957 48.85300064086914,35.2859992980957z"/></g></g><g transform="matrix(0.9996395111083984,0,0,1.0003604888916016,121.56304168701172,260.2086486816406)" opacity="0.5" style="mix-blend-mode: multiply; display: block;"><g opacity="1" transform="matrix(1,0,0,1,0,0)"><path class="secondary" fill="rgb(255,199,56)" fill-opacity="1" d=" M43.180999755859375,-5.571000099182129 C43.180999755859375,-18.26799964904785 49.94200134277344,-29.38599967956543 60.06100082397461,-35.520999908447266 C59.43899917602539,-35.55400085449219 58.8120002746582,-35.57099914550781 58.180999755859375,-35.57099914550781 C38.85100173950195,-35.57099914550781 23.180999755859375,-19.900999069213867 23.180999755859375,-0.5709999799728394 C23.180999755859375,18.759000778198242 38.85100173950195,34.42900085449219 58.180999755859375,34.42900085449219 C64.81400299072266,34.42900085449219 71.01499938964844,32.58399963378906 76.3010025024414,29.378999710083008 C57.845001220703125,28.402000427246094 43.180999755859375,13.128000259399414 43.180999755859375,-5.571000099182129z"/></g></g><g transform="matrix(0.9996395111083984,0,0,1.0003604888916016,130,344.98919677734375)" opacity="1" style="display: block;"><g opacity="1" transform="matrix(1,0,0,1,0,0)"><path class="primary" fill="rgb(242,139,168)" fill-opacity="1" d=" M-7.205999851226807,-30 C-39.125,-30 -65,-4.125 -65,27.79400062561035 C-65,27.79400062561035 -65,27 -65,27 C-65,28.656999588012695 -63.65700149536133,30 -62,30 C-62,30 62,30 62,30 C63.65700149536133,30 65,28.656999588012695 65,27 C65,27 65,-3.265000104904175 65,-3.265000104904175 C65,-18.030000686645508 53.029998779296875,-30 38.26499938964844,-30 C38.26499938964844,-30 -7.205999851226807,-30 -7.205999851226807,-30z"/></g></g><g transform="matrix(0.9996395111083984,0,0,1.0003604888916016,100.01081848144531,344.98919677734375)" opacity="0.5" style="mix-blend-mode: multiply; display: block;"><g opacity="1" transform="matrix(1,0,0,1,0,0)"><path class="primary" fill="rgb(242,139,168)" fill-opacity="1" d=" M-35,27.426000595092773 C-35,-4.289999961853027 -9.289999961853027,-30 22.426000595092773,-30 C22.426000595092773,-30 35,-30 35,-30 C10.147000312805176,-30 -10.178999900817871,0.34299999475479126 -10,15 C-10,15 -10,30 -10,30 C-10,30 -32,30 -32,30 C-33.65700149536133,30 -35,28.656999588012695 -35,27 C-35,27 -35,27.426000595092773 -35,27.426000595092773z"/></g></g><g transform="matrix(0.9860715270042419,0,0,1.0139284133911133,299.5069580078125,344.5821228027344)" opacity="1" style="display: block;"><g opacity="1" transform="matrix(1,0,0,1,0.23800000548362732,0)"><path class="primary" fill="rgb(242,139,168)" fill-opacity="1" d=" M-36.72700119018555,-30 C-52.34199905395508,-30 -65,-17.341999053955078 -65,-1.7269999980926514 C-65,-1.7269999980926514 -65,27 -65,27 C-65,28.656999588012695 -63.65700149536133,30 -62,30 C-62,30 62,30 62,30 C63.65700149536133,30 65,28.656999588012695 65,27 C65,27 65,25.58799934387207 65,25.58799934387207 C65,-5.11299991607666 40.112998962402344,-30 9.411999702453613,-30 C9.411999702453613,-30 -36.72700119018555,-30 -36.72700119018555,-30z"/></g></g><g transform="matrix(0.9860715270042419,0,0,1.0139284133911133,269.9248046875,344.5821228027344)" opacity="0.5" style="mix-blend-mode: multiply; display: block;"><g opacity="1" transform="matrix(1,0,0,1,0.23800000548362732,0)"><path class="primary" fill="rgb(242,139,168)" fill-opacity="1" d=" M-35,-1.8630000352859497 C-35,-17.402999877929688 -22.402999877929688,-30 -6.86299991607666,-30 C-6.86299991607666,-30 8.769000053405762,-30 8.769000053405762,-30 C-6.474999904632568,-26.659000396728516 -10,-9.852999687194824 -10,15 C-10,15 -10,30 -10,30 C-10,30 -32,30 -32,30 C-33.65700149536133,30 -35,28.656999588012695 -35,27 C-35,27 -35,-1.8630000352859497 -35,-1.8630000352859497z"/></g></g><g transform="matrix(0.9860715270042419,0,0,1.0139284133911133,300.4930419921875,258.6517028808594)" opacity="1" style="display: block;"><g opacity="1" transform="matrix(1,0,0,1,0,0)"><path class="secondary" fill="rgb(255,199,56)" fill-opacity="1" d=" M-41.82004165649414,34.95037078857422 C-22.49004364013672,34.95037078857422 -6.820043087005615,19.280372619628906 -6.820043087005615,-0.04962783679366112 C-6.820043087005615,-19.379627227783203 -22.49004364013672,-35.04962921142578 -41.82004165649414,-35.04962921142578 C-61.15004348754883,-35.04962921142578 -76.8200454711914,-19.379627227783203 -76.8200454711914,-0.04962783679366112 C-76.8200454711914,19.280372619628906 -61.15004348754883,34.95037078857422 -41.82004165649414,34.95037078857422z"/></g></g><g transform="matrix(0.9860715270042419,0,0,1.0139284133911133,292.17059326171875,258.6517028808594)" opacity="0.5" style="mix-blend-mode: multiply; display: block;"><g opacity="1" transform="matrix(1,0,0,1,0,0)"><path class="secondary" fill="rgb(255,199,56)" fill-opacity="1" d=" M-46.6019401550293,-5.025811195373535 C-46.6019401550293,-17.722810745239258 -39.840938568115234,-28.8408203125 -29.721939086914062,-34.9758186340332 C-30.34393882751465,-35.008819580078125 -30.970937728881836,-35.02581024169922 -31.601938247680664,-35.02581024169922 C-50.93193817138672,-35.02581024169922 -66.60193634033203,-19.355812072753906 -66.60193634033203,-0.02581132762134075 C-66.60193634033203,19.304187774658203 -50.93193817138672,34.97418975830078 -31.601938247680664,34.97418975830078 C-24.96893882751465,34.97418975830078 -18.7679386138916,33.13018035888672 -13.481938362121582,29.925180435180664 C-31.937938690185547,28.948179244995117 -46.6019401550293,13.673188209533691 -46.6019401550293,-5.025811195373535z"/></g></g><g transform="matrix(0.9860537648200989,0.16642709076404572,-0.16642709076404572,0.9860537648200989,161.1289520263672,119.49285888671875)" opacity="1" style="display: block;"><g opacity="1" transform="matrix(1,0,0,1,0,0)"><path class="quaternary" fill="rgb(235,230,239)" fill-opacity="1" d=" M-95,-48.70000076293945 C-95,-59.74599838256836 -86.0459976196289,-68.69999694824219 -75,-68.69999694824219 C-75,-68.69999694824219 75,-68.69999694824219 75,-68.69999694824219 C86.0459976196289,-68.69999694824219 95,-59.74599838256836 95,-48.70000076293945 C95,-48.70000076293945 95,11.300000190734863 95,11.300000190734863 C95,22.34600067138672 86.0459976196289,31.299999237060547 75,31.299999237060547 C75,31.299999237060547 30,31.299999237060547 30,31.299999237060547 C30,31.299999237060547 -25.336000442504883,68.19100189208984 -25.336000442504883,68.19100189208984 C-27.329999923706055,69.5199966430664 -30,68.09100341796875 -30,65.69499969482422 C-30,65.69499969482422 -30,31.299999237060547 -30,31.299999237060547 C-30,31.299999237060547 -75,31.299999237060547 -75,31.299999237060547 C-86.0459976196289,31.299999237060547 -95,22.34600067138672 -95,11.300000190734863 C-95,11.300000190734863 -95,-48.70000076293945 -95,-48.70000076293945z"/></g></g><g transform="matrix(0.9860537648200989,0.16642709076404572,-0.16642709076404572,0.9860537648200989,92.75224304199219,88.9876937866211)" opacity="0.5" style="mix-blend-mode: multiply; display: block;"><g opacity="1" transform="matrix(1,0,0,1,0,0)"><path class="quaternary" fill="rgb(235,230,239)" fill-opacity="1" d=" M-2.5,-50 C-13.545999526977539,-50 -22.5,-41.04600143432617 -22.5,-30 C-22.5,-30 -22.5,30 -22.5,30 C-22.5,41.04600143432617 -13.545999526977539,50 -2.5,50 C-2.5,50 22.5,50 22.5,50 C11.454000473022461,50 2.5,41.04600143432617 2.5,30 C2.5,30 2.5,-30 2.5,-30 C2.5,-41.04600143432617 11.454000473022461,-50 22.5,-50 C22.5,-50 -2.5,-50 -2.5,-50z"/></g></g><g transform="matrix(1,0,0,1,280,136.1999969482422)" opacity="1" style="display: block;"><g opacity="1" transform="matrix(1,0,0,1,0,0)"><path class="tertiary" fill="rgb(75,179,253)" fill-opacity="1" d=" M-95,-46.20000076293945 C-95,-57.24599838256836 -86.0459976196289,-66.19999694824219 -75,-66.19999694824219 C-75,-66.19999694824219 75,-66.19999694824219 75,-66.19999694824219 C86.0459976196289,-66.19999694824219 95,-57.24599838256836 95,-46.20000076293945 C95,-46.20000076293945 95,8.800000190734863 95,8.800000190734863 C95,19.84600067138672 86.0459976196289,28.799999237060547 75,28.799999237060547 C75,28.799999237060547 30,28.799999237060547 30,28.799999237060547 C30,28.799999237060547 30,63.19499969482422 30,63.19499969482422 C30,65.59100341796875 27.329999923706055,67.0199966430664 25.336000442504883,65.69100189208984 C25.336000442504883,65.69100189208984 -30,28.799999237060547 -30,28.799999237060547 C-30,28.799999237060547 -75,28.799999237060547 -75,28.799999237060547 C-86.0459976196289,28.799999237060547 -95,19.84600067138672 -95,8.800000190734863 C-95,8.800000190734863 -95,-46.20000076293945 -95,-46.20000076293945z"/></g></g><g transform="matrix(1,0,0,1,207.5,117.5)" opacity="0.5" style="mix-blend-mode: multiply; display: block;"><g opacity="1" transform="matrix(1,0,0,1,0,0)"><path class="tertiary" fill="rgb(75,179,253)" fill-opacity="1" d=" M-2.5,-47.5 C-13.545999526977539,-47.5 -22.5,-38.54600143432617 -22.5,-27.5 C-22.5,-27.5 -22.5,27.5 -22.5,27.5 C-22.5,38.54600143432617 -13.545999526977539,47.5 -2.5,47.5 C-2.5,47.5 22.5,47.5 22.5,47.5 C11.454000473022461,47.5 2.5,38.54600143432617 2.5,27.5 C2.5,27.5 2.5,-27.5 2.5,-27.5 C2.5,-38.54600143432617 11.454000473022461,-47.5 22.5,-47.5 C22.5,-47.5 -2.5,-47.5 -2.5,-47.5z"/></g></g></g></g></svg>