<svg xmlns="http://www.w3.org/2000/svg" xmlns:xlink="http://www.w3.org/1999/xlink" viewBox="0 0 430 430" width="430" height="430" preserveAspectRatio="xMidYMid meet" style="width: 100%; height: 100%; transform: translate3d(0px, 0px, 0px); content-visibility: visible;"><defs><clipPath id="__lottie_element_3086"><rect width="430" height="430" x="0" y="0"/></clipPath><clipPath id="__lottie_element_3088"><path d="M0,0 L430,0 L430,430 L0,430z"/></clipPath><g id="__lottie_element_3098"><g transform="matrix(1,0,0,1,259.82501220703125,195)" opacity="1" style="display: block;"><path fill="rgb(249,201,192)" fill-opacity="1" d=" M169.99099731445312,0 C169.99099731445312,22.538999557495117 161.03900146484375,44.154998779296875 145.10400390625,60.095001220703125 C145.10499572753906,71.25800323486328 142.9080047607422,82.31199645996094 138.63699340820312,92.6259994506836 C134.36599731445312,102.94000244140625 128.10499572753906,112.31099700927734 120.21199798583984,120.20500183105469 C112.31900024414062,128.0989990234375 102.947998046875,134.36099243164062 92.63500213623047,138.63299560546875 C82.3219985961914,142.90499877929688 71.26699829101562,145.10499572753906 60.104000091552734,145.10499572753906 C52.21200180053711,152.9980010986328 42.84299850463867,159.25799560546875 32.53099822998047,163.52999877929688 C22.2189998626709,167.802001953125 11.166999816894531,170 0.004999999888241291,170 C-11.156999588012695,170 -22.208999633789062,167.802001953125 -32.520999908447266,163.52999877929688 C-42.83300018310547,159.25799560546875 -52.202999114990234,152.9980010986328 -60.095001220703125,145.10499572753906 C-71.25900268554688,145.1060028076172 -82.31400299072266,142.9080047607422 -92.62799835205078,138.63600158691406 C-102.94200134277344,134.36399841308594 -112.31500244140625,128.10299682617188 -120.20899963378906,120.20899963378906 C-128.10299682617188,112.31500244140625 -134.36399841308594,102.94200134277344 -138.63600158691406,92.62799835205078 C-142.9080047607422,82.31400299072266 -145.10499572753906,71.25900268554688 -145.10400390625,60.095001220703125 C-161.03900146484375,44.154998779296875 -169.99099731445312,22.538999557495117 -169.99099731445312,0 C-169.99099731445312,-22.538999557495117 -161.03900146484375,-44.154998779296875 -145.10400390625,-60.095001220703125 C-145.10499572753906,-71.25900268554688 -142.9080047607422,-82.31400299072266 -138.63600158691406,-92.62799835205078 C-134.36399841308594,-102.94200134277344 -128.10299682617188,-112.31500244140625 -120.20899963378906,-120.20899963378906 C-112.31500244140625,-128.10299682617188 -102.94200134277344,-134.36399841308594 -92.62799835205078,-138.63600158691406 C-82.31400299072266,-142.9080047607422 -71.25900268554688,-145.1060028076172 -60.095001220703125,-145.10499572753906 C-52.202999114990234,-152.9980010986328 -42.83300018310547,-159.25799560546875 -32.520999908447266,-163.52999877929688 C-22.208999633789062,-167.802001953125 -11.156999588012695,-170 0.004999999888241291,-170 C11.166999816894531,-170 22.2189998626709,-167.802001953125 32.53099822998047,-163.52999877929688 C42.84299850463867,-159.25799560546875 52.21200180053711,-152.9980010986328 60.104000091552734,-145.10499572753906 C71.26699829101562,-145.10499572753906 82.3219985961914,-142.90499877929688 92.63500213623047,-138.63299560546875 C102.947998046875,-134.36099243164062 112.31900024414062,-128.0989990234375 120.21199798583984,-120.20500183105469 C128.10499572753906,-112.31099700927734 134.36599731445312,-102.94000244140625 138.63699340820312,-92.6259994506836 C142.9080047607422,-82.31199645996094 145.10499572753906,-71.25800323486328 145.10400390625,-60.095001220703125 C161.03900146484375,-44.154998779296875 169.99099731445312,-22.538999557495117 169.99099731445312,0z"/><g opacity="1" transform="matrix(1,0,0,1,0,0)"/></g></g><filter id="__lottie_element_3113" filterUnits="objectBoundingBox" x="0%" y="0%" width="100%" height="100%"><feComponentTransfer in="SourceGraphic"><feFuncA type="table" tableValues="1.0 0.0"/></feComponentTransfer></filter><mask id="__lottie_element_3098_2" mask-type="alpha"><g filter="url(#__lottie_element_3113)"><rect width="430" height="430" x="0" y="0" fill="#ffffff" opacity="0"/><use xmlns:ns1="http://www.w3.org/1999/xlink" ns1:href="#__lottie_element_3098"/></g></mask></defs><g clip-path="url(#__lottie_element_3086)"><g clip-path="url(#__lottie_element_3088)" transform="matrix(1,0,0,1,0,0)" opacity="1" style="display: block;"><g transform="matrix(1,0,0,1,214.99099731445312,215)" opacity="1" style="display: block;"><path class="primary" fill="rgb(249,201,192)" fill-opacity="1" d=" M169.99099731445312,0 C169.99099731445312,22.538999557495117 161.03900146484375,44.154998779296875 145.10400390625,60.095001220703125 C145.10499572753906,71.25800323486328 142.9080047607422,82.31199645996094 138.63699340820312,92.6259994506836 C134.36599731445312,102.94000244140625 128.10499572753906,112.31099700927734 120.21199798583984,120.20500183105469 C112.31900024414062,128.0989990234375 102.947998046875,134.36099243164062 92.63500213623047,138.63299560546875 C82.3219985961914,142.90499877929688 71.26699829101562,145.10499572753906 60.104000091552734,145.10499572753906 C52.21200180053711,152.9980010986328 42.84299850463867,159.25799560546875 32.53099822998047,163.52999877929688 C22.2189998626709,167.802001953125 11.166999816894531,170 0.004999999888241291,170 C-11.156999588012695,170 -22.208999633789062,167.802001953125 -32.520999908447266,163.52999877929688 C-42.83300018310547,159.25799560546875 -52.202999114990234,152.9980010986328 -60.095001220703125,145.10499572753906 C-71.25900268554688,145.1060028076172 -82.31400299072266,142.9080047607422 -92.62799835205078,138.63600158691406 C-102.94200134277344,134.36399841308594 -112.31500244140625,128.10299682617188 -120.20899963378906,120.20899963378906 C-128.10299682617188,112.31500244140625 -134.36399841308594,102.94200134277344 -138.63600158691406,92.62799835205078 C-142.9080047607422,82.31400299072266 -145.10499572753906,71.25900268554688 -145.10400390625,60.095001220703125 C-161.03900146484375,44.154998779296875 -169.99099731445312,22.538999557495117 -169.99099731445312,0 C-169.99099731445312,-22.538999557495117 -161.03900146484375,-44.154998779296875 -145.10400390625,-60.095001220703125 C-145.10499572753906,-71.25900268554688 -142.9080047607422,-82.31400299072266 -138.63600158691406,-92.62799835205078 C-134.36399841308594,-102.94200134277344 -128.10299682617188,-112.31500244140625 -120.20899963378906,-120.20899963378906 C-112.31500244140625,-128.10299682617188 -102.94200134277344,-134.36399841308594 -92.62799835205078,-138.63600158691406 C-82.31400299072266,-142.9080047607422 -71.25900268554688,-145.1060028076172 -60.095001220703125,-145.10499572753906 C-52.202999114990234,-152.9980010986328 -42.83300018310547,-159.25799560546875 -32.520999908447266,-163.52999877929688 C-22.208999633789062,-167.802001953125 -11.156999588012695,-170 0.004999999888241291,-170 C11.166999816894531,-170 22.2189998626709,-167.802001953125 32.53099822998047,-163.52999877929688 C42.84299850463867,-159.25799560546875 52.21200180053711,-152.9980010986328 60.104000091552734,-145.10499572753906 C71.26699829101562,-145.10499572753906 82.3219985961914,-142.90499877929688 92.63500213623047,-138.63299560546875 C102.947998046875,-134.36099243164062 112.31900024414062,-128.0989990234375 120.21199798583984,-120.20500183105469 C128.10499572753906,-112.31099700927734 134.36599731445312,-102.94000244140625 138.63699340820312,-92.6259994506836 C142.9080047607422,-82.31199645996094 145.10499572753906,-71.25800323486328 145.10400390625,-60.095001220703125 C161.03900146484375,-44.154998779296875 169.99099731445312,-22.538999557495117 169.99099731445312,0z"/><g opacity="1" transform="matrix(1,0,0,1,0,0)"/></g><g mask="url(#__lottie_element_3098_2)" style="mix-blend-mode: multiply; display: block;"><g transform="matrix(1,0,0,1,214.99099731445312,215)" opacity="0.3"><path class="primary" fill="rgb(249,201,192)" fill-opacity="1" d=" M169.99099731445312,0 C169.99099731445312,22.538999557495117 161.03900146484375,44.154998779296875 145.10400390625,60.095001220703125 C145.10499572753906,71.25800323486328 142.9080047607422,82.31199645996094 138.63699340820312,92.6259994506836 C134.36599731445312,102.94000244140625 128.10499572753906,112.31099700927734 120.21199798583984,120.20500183105469 C112.31900024414062,128.0989990234375 102.947998046875,134.36099243164062 92.63500213623047,138.63299560546875 C82.3219985961914,142.90499877929688 71.26699829101562,145.10499572753906 60.104000091552734,145.10499572753906 C52.21200180053711,152.9980010986328 42.84299850463867,159.25799560546875 32.53099822998047,163.52999877929688 C22.2189998626709,167.802001953125 11.166999816894531,170 0.004999999888241291,170 C-11.156999588012695,170 -22.208999633789062,167.802001953125 -32.520999908447266,163.52999877929688 C-42.83300018310547,159.25799560546875 -52.202999114990234,152.9980010986328 -60.095001220703125,145.10499572753906 C-71.25900268554688,145.1060028076172 -82.31400299072266,142.9080047607422 -92.62799835205078,138.63600158691406 C-102.94200134277344,134.36399841308594 -112.31500244140625,128.10299682617188 -120.20899963378906,120.20899963378906 C-128.10299682617188,112.31500244140625 -134.36399841308594,102.94200134277344 -138.63600158691406,92.62799835205078 C-142.9080047607422,82.31400299072266 -145.10499572753906,71.25900268554688 -145.10400390625,60.095001220703125 C-161.03900146484375,44.154998779296875 -169.99099731445312,22.538999557495117 -169.99099731445312,0 C-169.99099731445312,-22.538999557495117 -161.03900146484375,-44.154998779296875 -145.10400390625,-60.095001220703125 C-145.10499572753906,-71.25900268554688 -142.9080047607422,-82.31400299072266 -138.63600158691406,-92.62799835205078 C-134.36399841308594,-102.94200134277344 -128.10299682617188,-112.31500244140625 -120.20899963378906,-120.20899963378906 C-112.31500244140625,-128.10299682617188 -102.94200134277344,-134.36399841308594 -92.62799835205078,-138.63600158691406 C-82.31400299072266,-142.9080047607422 -71.25900268554688,-145.1060028076172 -60.095001220703125,-145.10499572753906 C-52.202999114990234,-152.9980010986328 -42.83300018310547,-159.25799560546875 -32.520999908447266,-163.52999877929688 C-22.208999633789062,-167.802001953125 -11.156999588012695,-170 0.004999999888241291,-170 C11.166999816894531,-170 22.2189998626709,-167.802001953125 32.53099822998047,-163.52999877929688 C42.84299850463867,-159.25799560546875 52.21200180053711,-152.9980010986328 60.104000091552734,-145.10499572753906 C71.26699829101562,-145.10499572753906 82.3219985961914,-142.90499877929688 92.63500213623047,-138.63299560546875 C102.947998046875,-134.36099243164062 112.31900024414062,-128.0989990234375 120.21199798583984,-120.20500183105469 C128.10499572753906,-112.31099700927734 134.36599731445312,-102.94000244140625 138.63699340820312,-92.6259994506836 C142.9080047607422,-82.31199645996094 145.10499572753906,-71.25800323486328 145.10400390625,-60.095001220703125 C161.03900146484375,-44.154998779296875 169.99099731445312,-22.538999557495117 169.99099731445312,0z"/><g opacity="1" transform="matrix(1,0,0,1,0,0)"/></g></g><g transform="matrix(1,0,0,1,214.99099731445312,215)" opacity="0.3" style="mix-blend-mode: multiply; display: block;"><g opacity="1" transform="matrix(1,0,0,1,0,0)"><path class="primary" fill="rgb(249,201,192)" fill-opacity="1" d=" M-138.63600158691406,92.62799835205078 C-142.9080047607422,82.31400299072266 -145.10499572753906,71.25900268554688 -145.10400390625,60.095001220703125 C-161.03900146484375,44.154998779296875 -169.99099731445312,22.538999557495117 -169.99099731445312,0 C-169.99099731445312,-22.538999557495117 -161.03900146484375,-44.154998779296875 -145.10400390625,-60.095001220703125 C-145.10499572753906,-71.25900268554688 -142.9080047607422,-82.31400299072266 -138.63600158691406,-92.62799835205078 C-134.36399841308594,-102.94200134277344 -128.10299682617188,-112.31500244140625 -120.20899963378906,-120.20899963378906 C-112.31500244140625,-128.10299682617188 -102.94200134277344,-134.36399841308594 -92.62799835205078,-138.63600158691406 C-82.31400299072266,-142.9080047607422 -71.25900268554688,-145.1060028076172 -60.095001220703125,-145.10499572753906 C-52.202999114990234,-152.9980010986328 -42.83300018310547,-159.25799560546875 -32.520999908447266,-163.52999877929688 C-22.208999633789062,-167.802001953125 -11.156999588012695,-170 0.004999999888241291,-170 C11.166999816894531,-170 22.2189998626709,-167.802001953125 32.53099822998047,-163.52999877929688 C42.84299850463867,-159.25799560546875 52.21200180053711,-152.9980010986328 60.104000091552734,-145.10499572753906 C71.26699829101562,-145.10499572753906 82.3219985961914,-142.90499877929688 92.63500213623047,-138.63299560546875 C102.947998046875,-134.36099243164062 112.31900024414062,-128.0989990234375 120.21199798583984,-120.20500183105469 C128.10499572753906,-112.31099700927734 134.36599731445312,-102.94000244140625 138.63699340820312,-92.6259994506836 C142.9080047607422,-82.31199645996094 145.10499572753906,-71.25800323486328 145.10400390625,-60.095001220703125 C161.03900146484375,-44.154998779296875 169.99099731445312,-22.538999557495117 169.99099731445312,0 C169.99099731445312,22.538999557495117 161.03900146484375,44.154998779296875 145.10400390625,60.095001220703125 C145.10499572753906,71.25800323486328 142.9080047607422,82.31199645996094 138.63699340820312,92.6259994506836 C134.36599731445312,102.94000244140625 128.10499572753906,112.31099700927734 120.21199798583984,120.20500183105469 C112.31900024414062,128.0989990234375 102.947998046875,134.36099243164062 92.63500213623047,138.63299560546875 C82.3219985961914,142.90499877929688 71.26699829101562,145.10499572753906 60.104000091552734,145.10499572753906 C52.21200180053711,152.9980010986328 42.84299850463867,159.25799560546875 32.53099822998047,163.52999877929688 C22.2189998626709,167.802001953125 11.166999816894531,170 0.004999999888241291,170 C-11.156999588012695,170 -22.208999633789062,167.802001953125 -32.520999908447266,163.52999877929688 C-42.83300018310547,159.25799560546875 -52.202999114990234,152.9980010986328 -60.095001220703125,145.10499572753906 C-71.25900268554688,145.1060028076172 -82.31400299072266,142.9080047607422 -92.62799835205078,138.63600158691406 C-102.94200134277344,134.36399841308594 -112.31500244140625,128.10299682617188 -120.20899963378906,120.20899963378906 C-128.10299682617188,112.31500244140625 -134.36399841308594,102.94200134277344 -138.63600158691406,92.62799835205078z M130.9600067138672,45.95500183105469 C143.14599609375,33.76599884033203 149.99099731445312,17.236000061035156 149.99099731445312,0 C149.99099731445312,-17.236000061035156 143.14599609375,-33.76599884033203 130.9600067138672,-45.95500183105469 C127.20999908447266,-49.70600128173828 125.10299682617188,-54.792999267578125 125.10399627685547,-60.09700012207031 C125.1050033569336,-68.63400268554688 123.42500305175781,-77.08699798583984 120.15899658203125,-84.9739990234375 C116.89299774169922,-92.86100006103516 112.1050033569336,-100.0270004272461 106.06900024414062,-106.06400299072266 C100.03299713134766,-112.10099792480469 92.86799621582031,-116.88899993896484 84.98100280761719,-120.15599822998047 C77.09400177001953,-123.4229965209961 68.64099884033203,-125.1050033569336 60.104000091552734,-125.1050033569336 C54.79899978637695,-125.1050033569336 49.7130012512207,-127.21199798583984 45.96200180053711,-130.96299743652344 C39.926998138427734,-136.9980010986328 32.762001037597656,-141.78599548339844 24.87700080871582,-145.052001953125 C16.992000579833984,-148.3179931640625 8.539999961853027,-150 0.004999999888241291,-150 C-8.529999732971191,-150 -16.98200035095215,-148.3179931640625 -24.867000579833984,-145.052001953125 C-32.75199890136719,-141.78599548339844 -39.91699981689453,-136.9980010986328 -45.95199966430664,-130.96299743652344 C-49.702999114990234,-127.21099853515625 -54.79199981689453,-125.10399627685547 -60.09700012207031,-125.1050033569336 C-68.63400268554688,-125.10600280761719 -77.08799743652344,-123.42500305175781 -84.9749984741211,-120.15799713134766 C-92.86199951171875,-116.89099884033203 -100.02899932861328,-112.10299682617188 -106.06600189208984,-106.06600189208984 C-112.10299682617188,-100.02899932861328 -116.89099884033203,-92.86299896240234 -120.15799713134766,-84.97599792480469 C-123.42500305175781,-77.08899688720703 -125.1050033569336,-68.63400268554688 -125.10399627685547,-60.09700012207031 C-125.10299682617188,-54.792999267578125 -127.20999908447266,-49.70600128173828 -130.9600067138672,-45.95500183105469 C-143.14599609375,-33.76599884033203 -149.99099731445312,-17.236000061035156 -149.99099731445312,0 C-149.99099731445312,17.236000061035156 -143.14599609375,33.76599884033203 -130.9600067138672,45.95500183105469 C-127.20999908447266,49.70600128173828 -125.10299682617188,54.792999267578125 -125.10399627685547,60.09700012207031 C-125.1050033569336,68.63400268554688 -123.42500305175781,77.08899688720703 -120.15799713134766,84.97599792480469 C-116.89099884033203,92.86299896240234 -112.10299682617188,100.02899932861328 -106.06600189208984,106.06600189208984 C-100.02899932861328,112.10299682617188 -92.86199951171875,116.89099884033203 -84.9749984741211,120.15799713134766 C-77.08799743652344,123.42500305175781 -68.63400268554688,125.10600280761719 -60.09700012207031,125.1050033569336 C-54.79199981689453,125.10399627685547 -49.702999114990234,127.21099853515625 -45.95199966430664,130.96299743652344 C-39.91699981689453,136.9980010986328 -32.75199890136719,141.78599548339844 -24.867000579833984,145.052001953125 C-16.98200035095215,148.3179931640625 -8.529999732971191,150 0.004999999888241291,150 C8.539999961853027,150 16.992000579833984,148.3179931640625 24.87700080871582,145.052001953125 C32.762001037597656,141.78599548339844 39.926998138427734,136.9980010986328 45.96200180053711,130.96299743652344 C49.7130012512207,127.21199798583984 54.79899978637695,125.1050033569336 60.104000091552734,125.1050033569336 C68.64099884033203,125.1050033569336 77.09400177001953,123.4229965209961 84.98100280761719,120.15599822998047 C92.86799621582031,116.88899993896484 100.03299713134766,112.10099792480469 106.06900024414062,106.06400299072266 C112.1050033569336,100.0270004272461 116.89299774169922,92.86100006103516 120.15899658203125,84.9739990234375 C123.42500305175781,77.08699798583984 125.1050033569336,68.63400268554688 125.10399627685547,60.09700012207031 C125.10299682617188,54.792999267578125 127.20999908447266,49.70600128173828 130.9600067138672,45.95500183105469z"/></g></g><g transform="matrix(1,0,0,1,214.5,215)" opacity="1" style="display: block;"><g opacity="1" transform="matrix(1,0,0,1,0,0)"><path stroke-linecap="round" stroke-linejoin="round" fill-opacity="0" class="secondary" stroke="rgb(146,20,12)" stroke-opacity="1" stroke-width="7" d=" M-72.5,-27.5 C-72.5,-27.5 -105.5,-27.5 -105.5,-27.5 C-105.5,-27.5 -105.5,3.055999994277954 -105.5,3.055999994277954 M-105.5,27.5 C-105.5,27.5 -105.5,3.055999994277954 -105.5,3.055999994277954 M-77.31300354003906,3.055999994277954 C-77.31300354003906,3.055999994277954 -105.5,3.055999994277954 -105.5,3.055999994277954 M-49.5,27.5 C-49.5,27.5 -49.5,6.111000061035156 -49.5,6.111000061035156 M-25.02899932861328,6.111000061035156 C-25.02899932861328,6.111000061035156 -10.5,27.5 -10.5,27.5 M-49.5,-27.5 C-49.5,-27.5 -26.55900001525879,-27.5 -26.55900001525879,-27.5 C-18.11199951171875,-27.5 -11.265000343322754,-20.65999984741211 -11.265000343322754,-12.222000122070312 C-11.265000343322754,-12.222000122070312 -11.265000343322754,-9.166999816894531 -11.265000343322754,-9.166999816894531 C-11.265000343322754,-0.7289999723434448 -18.11199951171875,6.111000061035156 -26.55900001525879,6.111000061035156 C-26.55900001525879,6.111000061035156 -49.5,6.111000061035156 -49.5,6.111000061035156 C-49.5,6.111000061035156 -49.5,-27.5 -49.5,-27.5z M72.5,0 C72.5,0 100.68800354003906,0.00800000037997961 100.68800354003906,0.00800000037997961 M105.5,27.5 C105.5,27.5 72.5,27.5 72.5,27.5 C72.5,27.5 72.5,-27.5 72.5,-27.5 C72.5,-27.5 105.5,-27.5 105.5,-27.5 M14.5,0 C14.5,0 42.6879997253418,0.00800000037997961 42.6879997253418,0.00800000037997961 M47.5,27.5 C47.5,27.5 14.5,27.5 14.5,27.5 C14.5,27.5 14.5,-27.5 14.5,-27.5 C14.5,-27.5 47.5,-27.5 47.5,-27.5"/></g></g><g style="display: none;"><g><path stroke-linecap="round" stroke-linejoin="round" fill-opacity="0" class="secondary"/></g></g><g transform="matrix(1,0,0,1,214.99099731445312,215)" opacity="1" style="display: block;"><g opacity="1" transform="matrix(1,0,0,1,0,0)"><path stroke-linecap="round" stroke-linejoin="round" fill-opacity="0" class="primary" stroke="rgb(249,201,192)" stroke-opacity="1" stroke-width="0" d=" M0.008999999612569809,0 C0.008999999612569809,22.538999557495117 0.008999999612569809,44.154998779296875 0.00800000037997961,60.095001220703125 C0.00800000037997961,71.25800323486328 0.007000000216066837,82.31199645996094 0.007000000216066837,92.6259994506836 C0.007000000216066837,102.94000244140625 0.006000000052154064,112.31099700927734 0.006000000052154064,120.20500183105469 C0.006000000052154064,128.0989990234375 0.006000000052154064,134.36099243164062 0.004999999888241291,138.63299560546875 C0.004000000189989805,142.90499877929688 0.004000000189989805,145.10499572753906 0.003000000026077032,145.10499572753906 C0.003000000026077032,152.9980010986328 0.003000000026077032,159.25799560546875 0.0020000000949949026,163.52999877929688 C0.0010000000474974513,167.802001953125 0.0010000000474974513,170 0,170 C-0.0010000000474974513,170 -0.0010000000474974513,167.802001953125 -0.0020000000949949026,163.52999877929688 C-0.003000000026077032,159.25799560546875 -0.003000000026077032,152.9980010986328 -0.003000000026077032,145.10499572753906 C-0.004000000189989805,145.1060028076172 -0.004000000189989805,142.9080047607422 -0.004999999888241291,138.63600158691406 C-0.006000000052154064,134.36399841308594 -0.006000000052154064,128.10299682617188 -0.006000000052154064,120.20899963378906 C-0.006000000052154064,112.31500244140625 -0.007000000216066837,102.94200134277344 -0.007000000216066837,92.62799835205078 C-0.007000000216066837,82.31400299072266 -0.00800000037997961,71.25900268554688 -0.00800000037997961,60.095001220703125 C-0.008999999612569809,44.154998779296875 -0.008999999612569809,22.538999557495117 -0.008999999612569809,0 C-0.008999999612569809,-22.538999557495117 -0.008999999612569809,-44.154998779296875 -0.00800000037997961,-60.095001220703125 C-0.00800000037997961,-71.25900268554688 -0.007000000216066837,-82.31400299072266 -0.007000000216066837,-92.62799835205078 C-0.007000000216066837,-102.94200134277344 -0.006000000052154064,-112.31500244140625 -0.006000000052154064,-120.20899963378906 C-0.006000000052154064,-128.10299682617188 -0.006000000052154064,-134.36399841308594 -0.004999999888241291,-138.63600158691406 C-0.004000000189989805,-142.9080047607422 -0.004000000189989805,-145.1060028076172 -0.003000000026077032,-145.10499572753906 C-0.003000000026077032,-152.9980010986328 -0.003000000026077032,-159.25799560546875 -0.0020000000949949026,-163.52999877929688 C-0.0010000000474974513,-167.802001953125 -0.0010000000474974513,-170 0,-170 C0.0010000000474974513,-170 0.0010000000474974513,-167.802001953125 0.0020000000949949026,-163.52999877929688 C0.003000000026077032,-159.25799560546875 0.003000000026077032,-152.9980010986328 0.003000000026077032,-145.10499572753906 C0.004000000189989805,-145.10499572753906 0.004000000189989805,-142.90499877929688 0.004999999888241291,-138.63299560546875 C0.006000000052154064,-134.36099243164062 0.006000000052154064,-128.0989990234375 0.006000000052154064,-120.20500183105469 C0.006000000052154064,-112.31099700927734 0.007000000216066837,-102.94000244140625 0.007000000216066837,-92.6259994506836 C0.007000000216066837,-82.31199645996094 0.00800000037997961,-71.25800323486328 0.00800000037997961,-60.095001220703125 C0.008999999612569809,-44.154998779296875 0.008999999612569809,-22.538999557495117 0.008999999612569809,0z"/></g></g></g></g></svg>