<svg xmlns="http://www.w3.org/2000/svg" xmlns:xlink="http://www.w3.org/1999/xlink" viewBox="0 0 430 430" width="430" height="430" preserveAspectRatio="xMidYMid meet" style="width: 100%; height: 100%; transform: translate3d(0px, 0px, 0px); content-visibility: visible;"><defs><clipPath id="__lottie_element_1189"><rect width="430" height="430" x="0" y="0"/></clipPath><clipPath id="__lottie_element_1191"><path d="M0,0 L430,0 L430,430 L0,430z"/></clipPath><g id="__lottie_element_1201"><g transform="matrix(0.8799999952316284,0,0,1,5,-25)" opacity="1" style="display: block;"><g opacity="1" transform="matrix(1,0,0,1,250,349.6310119628906)"><path class="tertiary" fill="rgb(75,179,253)" fill-opacity="1" d=" M42.94152069091797,-97.24225616455078 C42.94152069091797,-97.24225616455078 51.894351959228516,-96.59054565429688 51.894351959228516,-96.59054565429688 C92.9580307006836,-96.28936767578125 138.36170959472656,-51.25673294067383 138.36170959472656,-7.776732921600342 C138.36170959472656,-7.776732921600342 139.3756561279297,37.120845794677734 139.3756561279297,37.120845794677734 C139.3756561279297,45.5798454284668 132.51466369628906,52.441619873046875 124.0556640625,52.441619873046875 C124.0556640625,52.441619873046875 104.62566375732422,52.441619873046875 104.62566375732422,52.441619873046875 C66.13866424560547,55.43062210083008 49.06999969482422,71.43199920654297 16.898000717163086,71.43199920654297 C16.898000717163086,71.43199920654297 -16.898000717163086,71.43199920654297 -16.898000717163086,71.43199920654297 C-49.06999969482422,71.43199920654297 -48.57699966430664,57.60599899291992 -87.06400299072266,54.617000579833984 C-87.06400299072266,54.617000579833984 -106.49400329589844,54.617000579833984 -106.49400329589844,54.617000579833984 C-114.9530029296875,54.617000579833984 -121.81500244140625,47.75600051879883 -121.81500244140625,39.297000885009766 C-121.81500244140625,39.297000885009766 -121.81500244140625,7.784999847412109 -121.81500244140625,7.784999847412109 C-121.81500244140625,-35.69499969482422 -83.63072967529297,-69.8876953125 -40.18418884277344,-69.08255004882812 C-40.18418884277344,-69.08255004882812 -30.991758346557617,-69.17898559570312 -30.991758346557617,-69.17898559570312"/></g></g></g><g id="__lottie_element_1213"><g transform="matrix(0.9912009239196777,0.13236597180366516,-0.13236597180366516,0.9912009239196777,19.794967651367188,-64.12141418457031)" opacity="1" style="display: block;"><g opacity="1" transform="matrix(1,0,0,1,249.43899536132812,220.58200073242188)"><path class="primary" fill="rgb(249,201,192)" fill-opacity="1" d=" M29,-118.90399932861328 C29,-118.90399932861328 62,-90.76899719238281 62,-90.76899719238281 C62,-90.76899719238281 61.965999603271484,-13.8149995803833 61.965999603271484,-13.8149995803833 C61.965999603271484,19.990999221801758 34.553001403808594,47.40399932861328 0.746999979019165,47.40399932861328 C0.746999979019165,47.40399932861328 -0.746999979019165,47.40399932861328 -0.746999979019165,47.40399932861328 C-34.553001403808594,47.40399932861328 -61.965999603271484,19.990999221801758 -61.965999603271484,-13.8149995803833 C-61.965999603271484,-13.8149995803833 -61.93199920654297,-90.34300231933594 -61.93199920654297,-90.34300231933594"/></g></g></g><filter id="__lottie_element_1219" filterUnits="objectBoundingBox" x="0%" y="0%" width="100%" height="100%"><feComponentTransfer in="SourceGraphic"><feFuncA type="table" tableValues="1.0 0.0"/></feComponentTransfer></filter><mask id="__lottie_element_1213_2" mask-type="alpha"><g filter="url(#__lottie_element_1219)"><rect width="430" height="430" x="0" y="0" fill="#ffffff" opacity="0"/><use xmlns:ns1="http://www.w3.org/1999/xlink" ns1:href="#__lottie_element_1213"/></g></mask><filter id="__lottie_element_1220" filterUnits="objectBoundingBox" x="0%" y="0%" width="100%" height="100%"><feComponentTransfer in="SourceGraphic"><feFuncA type="table" tableValues="1.0 0.0"/></feComponentTransfer></filter><mask id="__lottie_element_1201_2" mask-type="alpha"><g filter="url(#__lottie_element_1220)"><rect width="430" height="430" x="0" y="0" fill="#ffffff" opacity="0"/><use xmlns:ns2="http://www.w3.org/1999/xlink" ns2:href="#__lottie_element_1201"/></g></mask><clipPath id="__lottie_element_1713"><path d="M0,0 L430,0 L430,430 L0,430z"/></clipPath><g id="__lottie_element_1758"><g transform="matrix(1,0,0,1,-15,-35)" opacity="1" style="display: block;"><g opacity="1" transform="matrix(1,0,0,1,249.43899536132812,220.58200073242188)"><path fill="rgb(249,201,192)" fill-opacity="1" d=" M61.93199920654297,-104.40399932861328 C61.93199920654297,-104.40399932861328 61.965999603271484,-44.26900100708008 61.965999603271484,-44.26900100708008 C61.965999603271484,-44.26900100708008 61.965999603271484,-13.8149995803833 61.965999603271484,-13.8149995803833 C61.965999603271484,19.990999221801758 34.553001403808594,47.40399932861328 0.746999979019165,47.40399932861328 C0.746999979019165,47.40399932861328 -0.746999979019165,47.40399932861328 -0.746999979019165,47.40399932861328 C-34.553001403808594,47.40399932861328 -61.965999603271484,19.990999221801758 -61.965999603271484,-13.8149995803833 C-61.965999603271484,-13.8149995803833 -61.93199920654297,-110.34300231933594 -61.93199920654297,-110.34300231933594"/></g></g></g><filter id="__lottie_element_1764" filterUnits="objectBoundingBox" x="0%" y="0%" width="100%" height="100%"><feComponentTransfer in="SourceGraphic"><feFuncA type="table" tableValues="1.0 0.0"/></feComponentTransfer></filter><mask id="__lottie_element_1758_2" mask-type="alpha"><g filter="url(#__lottie_element_1764)"><rect width="430" height="430" x="0" y="0" fill="#ffffff" opacity="0"/><use xmlns:ns3="http://www.w3.org/1999/xlink" ns3:href="#__lottie_element_1758"/></g></mask><g id="__lottie_element_1771"><g transform="matrix(0.8799999952316284,0,0,1.000004529953003,5,-25.00177001953125)" opacity="1" style="display: block;"><g opacity="1" transform="matrix(1,0,0,1,250,349.6310119628906)"><path fill="rgb(75,179,253)" fill-opacity="1" d=" M35.263999938964844,-97.12000274658203 C35.263999938964844,-97.12000274658203 44.231998443603516,-96.62200164794922 44.231998443603516,-96.62200164794922 C87.71199798583984,-96.62200164794922 136.58700561523438,-43.95199966430664 136.58700561523438,-0.47200000286102295 C136.58700561523438,-0.47200000286102295 136.58700561523438,31.040000915527344 136.58700561523438,31.040000915527344 C136.58700561523438,39.499000549316406 129.7259979248047,46.36000061035156 121.26699829101562,46.36000061035156 C121.26699829101562,46.36000061035156 101.83699798583984,46.36000061035156 101.83699798583984,46.36000061035156 C63.349998474121094,49.3489990234375 49.06999969482422,71.43199920654297 16.898000717163086,71.43199920654297 C16.898000717163086,71.43199920654297 -16.898000717163086,71.43199920654297 -16.898000717163086,71.43199920654297 C-49.06999969482422,71.43199920654297 -48.57699966430664,57.60599899291992 -87.06400299072266,54.617000579833984 C-87.06400299072266,54.617000579833984 -106.49400329589844,54.617000579833984 -106.49400329589844,54.617000579833984 C-114.9530029296875,54.617000579833984 -121.81500244140625,47.75600051879883 -121.81500244140625,39.297000885009766 C-121.81500244140625,39.297000885009766 -121.81500244140625,7.784999847412109 -121.81500244140625,7.784999847412109 C-121.81500244140625,-35.69499969482422 -86.57599639892578,-70.93399810791016 -43.09600067138672,-70.93399810791016 C-43.09600067138672,-70.93399810791016 -34.12799835205078,-71.43199920654297 -34.12799835205078,-71.43199920654297"/></g></g></g><filter id="__lottie_element_1783" filterUnits="objectBoundingBox" x="0%" y="0%" width="100%" height="100%"><feComponentTransfer in="SourceGraphic"><feFuncA type="table" tableValues="1.0 0.0"/></feComponentTransfer></filter><mask id="__lottie_element_1771_2" mask-type="alpha"><g filter="url(#__lottie_element_1783)"><rect width="430" height="430" x="0" y="0" fill="#ffffff" opacity="0"/><use xmlns:ns4="http://www.w3.org/1999/xlink" ns4:href="#__lottie_element_1771"/></g></mask><clipPath id="__lottie_element_2016"><path d="M0,0 L430,0 L430,430 L0,430z"/></clipPath><g id="__lottie_element_2025"><g transform="matrix(0.8799999952316284,0,0,1,5,-25)" opacity="1" style="display: block;"><g opacity="1" transform="matrix(1,0,0,1,250,349.6310119628906)"><path class="tertiary" fill="rgb(75,179,253)" fill-opacity="1" d=" M56.85499954223633,-91.43199920654297 C56.85499954223633,-91.43199920654297 65.822998046875,-90.93399810791016 65.822998046875,-90.93399810791016 C109.3030014038086,-90.93399810791016 144.54200744628906,-35.69499969482422 144.54200744628906,7.784999847412109 C144.54200744628906,7.784999847412109 144.54200744628906,39.297000885009766 144.54200744628906,39.297000885009766 C144.54200744628906,47.75600051879883 137.68099975585938,54.617000579833984 129.2220001220703,54.617000579833984 C129.2220001220703,54.617000579833984 109.79100036621094,54.617000579833984 109.79100036621094,54.617000579833984 C71.30400085449219,57.60599899291992 49.06999969482422,71.43199920654297 16.898000717163086,71.43199920654297 C16.898000717163086,71.43199920654297 -16.898000717163086,71.43199920654297 -16.898000717163086,71.43199920654297 C-49.06999969482422,71.43199920654297 -48.57699966430664,57.60599899291992 -87.06400299072266,54.617000579833984 C-87.06400299072266,54.617000579833984 -106.49400329589844,54.617000579833984 -106.49400329589844,54.617000579833984 C-114.9530029296875,54.617000579833984 -121.81500244140625,47.75600051879883 -121.81500244140625,39.297000885009766 C-121.81500244140625,39.297000885009766 -121.81500244140625,7.784999847412109 -121.81500244140625,7.784999847412109 C-121.81500244140625,-35.69499969482422 -86.57599639892578,-70.93399810791016 -43.09600067138672,-70.93399810791016 C-43.09600067138672,-70.93399810791016 -34.12799835205078,-71.43199920654297 -34.12799835205078,-71.43199920654297"/></g></g></g><g id="__lottie_element_2037"><g transform="matrix(1,0,0,1,-15.000015258789062,-35)" opacity="1" style="display: block;"><g opacity="1" transform="matrix(1,0,0,1,249.43899536132812,220.58200073242188)"><path class="primary" fill="rgb(249,201,192)" fill-opacity="1" d=" M14.965999603271484,-121.40399932861328 C14.965999603271484,-121.40399932861328 61.93199920654297,-82.26899719238281 61.93199920654297,-82.26899719238281 C61.93199920654297,-82.26899719238281 61.965999603271484,-13.8149995803833 61.965999603271484,-13.8149995803833 C61.965999603271484,19.990999221801758 34.553001403808594,47.40399932861328 0.746999979019165,47.40399932861328 C0.746999979019165,47.40399932861328 -0.746999979019165,47.40399932861328 -0.746999979019165,47.40399932861328 C-34.553001403808594,47.40399932861328 -61.965999603271484,19.990999221801758 -61.965999603271484,-13.8149995803833 C-61.965999603271484,-13.8149995803833 -61.93199920654297,-64.84300231933594 -61.93199920654297,-64.84300231933594"/></g></g></g><filter id="__lottie_element_2043" filterUnits="objectBoundingBox" x="0%" y="0%" width="100%" height="100%"><feComponentTransfer in="SourceGraphic"><feFuncA type="table" tableValues="1.0 0.0"/></feComponentTransfer></filter><mask id="__lottie_element_2037_2" mask-type="alpha"><g filter="url(#__lottie_element_2043)"><rect width="430" height="430" x="0" y="0" fill="#ffffff" opacity="0"/><use xmlns:ns5="http://www.w3.org/1999/xlink" ns5:href="#__lottie_element_2037"/></g></mask><filter id="__lottie_element_2044" filterUnits="objectBoundingBox" x="0%" y="0%" width="100%" height="100%"><feComponentTransfer in="SourceGraphic"><feFuncA type="table" tableValues="1.0 0.0"/></feComponentTransfer></filter><mask id="__lottie_element_2025_2" mask-type="alpha"><g filter="url(#__lottie_element_2044)"><rect width="430" height="430" x="0" y="0" fill="#ffffff" opacity="0"/><use xmlns:ns6="http://www.w3.org/1999/xlink" ns6:href="#__lottie_element_2025"/></g></mask></defs><g clip-path="url(#__lottie_element_1189)"><g clip-path="url(#__lottie_element_2016)" transform="matrix(1,0,0,1,0,0)" opacity="1" style="display: block;"><g transform="matrix(1,0,0,1,-35,-35)" opacity="1" style="display: block;"><g opacity="1" transform="matrix(1,0,0,1,250,349.6310119628906)"><path class="tertiary" fill="rgb(75,179,253)" fill-opacity="1" d=" M34.12799835205078,-71.43199920654297 C34.12799835205078,-71.43199920654297 43.09600067138672,-70.93399810791016 43.09600067138672,-70.93399810791016 C86.57599639892578,-70.93399810791016 121.81500244140625,-35.69499969482422 121.81500244140625,7.784999847412109 C121.81500244140625,7.784999847412109 121.81500244140625,39.297000885009766 121.81500244140625,39.297000885009766 C121.81500244140625,47.75600051879883 114.9540023803711,54.617000579833984 106.49500274658203,54.617000579833984 C106.49500274658203,54.617000579833984 87.06400299072266,54.617000579833984 87.06400299072266,54.617000579833984 C48.57699966430664,57.60599899291992 49.06999969482422,71.43199920654297 16.898000717163086,71.43199920654297 C16.898000717163086,71.43199920654297 -16.898000717163086,71.43199920654297 -16.898000717163086,71.43199920654297 C-49.06999969482422,71.43199920654297 -48.57699966430664,57.60599899291992 -87.06400299072266,54.617000579833984 C-87.06400299072266,54.617000579833984 -106.49400329589844,54.617000579833984 -106.49400329589844,54.617000579833984 C-114.9530029296875,54.617000579833984 -121.81500244140625,47.75600051879883 -121.81500244140625,39.297000885009766 C-121.81500244140625,39.297000885009766 -121.81500244140625,7.784999847412109 -121.81500244140625,7.784999847412109 C-121.81500244140625,-35.69499969482422 -86.57599639892578,-70.93399810791016 -43.09600067138672,-70.93399810791016 C-43.09600067138672,-70.93399810791016 -34.12799835205078,-71.43199920654297 -34.12799835205078,-71.43199920654297"/></g></g><g mask="url(#__lottie_element_2025_2)" style="mix-blend-mode: multiply; display: block;"><g transform="matrix(1,0,0,1,-35,-35)" opacity="0.5"><g opacity="1" transform="matrix(1,0,0,1,250,349.6310119628906)"><path class="tertiary" fill="rgb(75,179,253)" fill-opacity="1" d=" M34.12799835205078,-71.43199920654297 C34.12799835205078,-71.43199920654297 43.09600067138672,-70.93399810791016 43.09600067138672,-70.93399810791016 C86.57599639892578,-70.93399810791016 121.81500244140625,-35.69499969482422 121.81500244140625,7.784999847412109 C121.81500244140625,7.784999847412109 121.81500244140625,39.297000885009766 121.81500244140625,39.297000885009766 C121.81500244140625,47.75600051879883 114.9540023803711,54.617000579833984 106.49500274658203,54.617000579833984 C106.49500274658203,54.617000579833984 87.06400299072266,54.617000579833984 87.06400299072266,54.617000579833984 C48.57699966430664,57.60599899291992 49.06999969482422,71.43199920654297 16.898000717163086,71.43199920654297 C16.898000717163086,71.43199920654297 -16.898000717163086,71.43199920654297 -16.898000717163086,71.43199920654297 C-49.06999969482422,71.43199920654297 -48.57699966430664,57.60599899291992 -87.06400299072266,54.617000579833984 C-87.06400299072266,54.617000579833984 -106.49400329589844,54.617000579833984 -106.49400329589844,54.617000579833984 C-114.9530029296875,54.617000579833984 -121.81500244140625,47.75600051879883 -121.81500244140625,39.297000885009766 C-121.81500244140625,39.297000885009766 -121.81500244140625,7.784999847412109 -121.81500244140625,7.784999847412109 C-121.81500244140625,-35.69499969482422 -86.57599639892578,-70.93399810791016 -43.09600067138672,-70.93399810791016 C-43.09600067138672,-70.93399810791016 -34.12799835205078,-71.43199920654297 -34.12799835205078,-71.43199920654297"/></g></g></g><g transform="matrix(1,0,0,1,-35,-35)" opacity="1" style="display: block;"><g opacity="1" transform="matrix(1,0,0,1,300.9429931640625,362.25299072265625)"><path stroke-linecap="round" stroke-linejoin="round" fill-opacity="0" class="secondary" stroke="rgb(235,230,239)" stroke-opacity="1" stroke-width="7" d=" M-18.309999465942383,0.5090000033378601 C-18.309999465942383,0.5090000033378601 -18.309999465942383,0.5090000033378601 -18.309999465942383,0.5090000033378601 C-18.309999465942383,-9.619999885559082 -17.27400016784668,-17.832000732421875 -15.996999740600586,-17.832000732421875 C-15.996999740600586,-17.832000732421875 -15.753000259399414,-17.832000732421875 -15.753000259399414,-17.832000732421875 C-15.206999778747559,-17.815000534057617 -13.371999740600586,-16.492000579833984 -9.746000289916992,-12.746000289916992 C-3.246999979019165,-19.097999572753906 3.25,-19.097999572753906 9.746000289916992,-12.746000289916992 C13.373000144958496,-16.492000579833984 15.206999778747559,-17.815000534057617 15.753000259399414,-17.832000732421875 C15.753000259399414,-17.832000732421875 15.996999740600586,-17.832000732421875 15.996999740600586,-17.832000732421875 C17.27400016784668,-17.832000732421875 18.309999465942383,-9.619999885559082 18.309999465942383,0.5090000033378601 C18.309999465942383,0.5090000033378601 18.309999465942383,0.5090000033378601 18.309999465942383,0.5090000033378601 C18.309999465942383,0.5090000033378601 18.309999465942383,-0.6019999980926514 18.309999465942383,-0.6019999980926514 C18.309999465942383,-0.6019999980926514 18.309999465942383,1.6399999856948853 18.309999465942383,1.6399999856948853 C18.309999465942383,10.583000183105469 11.060999870300293,17.832000732421875 2.118000030517578,17.832000732421875 C2.118000030517578,17.832000732421875 -2.117000102996826,17.832000732421875 -2.117000102996826,17.832000732421875 C-11.0600004196167,17.832000732421875 -18.30900001525879,10.583000183105469 -18.30900001525879,1.6399999856948853 C-18.30900001525879,1.6399999856948853 -18.30900001525879,-0.6019999980926514 -18.30900001525879,-0.6019999980926514"/><path class="secondary" fill="rgb(235,230,239)" fill-opacity="1" d=" M-18.309999465942383,0.5090000033378601 C-18.309999465942383,0.5090000033378601 -18.309999465942383,0.5090000033378601 -18.309999465942383,0.5090000033378601 C-18.309999465942383,-9.619999885559082 -17.27400016784668,-17.832000732421875 -15.996999740600586,-17.832000732421875 C-15.996999740600586,-17.832000732421875 -15.753000259399414,-17.832000732421875 -15.753000259399414,-17.832000732421875 C-15.206999778747559,-17.815000534057617 -13.371999740600586,-16.492000579833984 -9.746000289916992,-12.746000289916992 C-3.246999979019165,-19.097999572753906 3.25,-19.097999572753906 9.746000289916992,-12.746000289916992 C13.373000144958496,-16.492000579833984 15.206999778747559,-17.815000534057617 15.753000259399414,-17.832000732421875 C15.753000259399414,-17.832000732421875 15.996999740600586,-17.832000732421875 15.996999740600586,-17.832000732421875 C17.27400016784668,-17.832000732421875 18.309999465942383,-9.619999885559082 18.309999465942383,0.5090000033378601 C18.309999465942383,0.5090000033378601 18.309999465942383,0.5090000033378601 18.309999465942383,0.5090000033378601 C18.309999465942383,0.5090000033378601 18.309999465942383,-0.6019999980926514 18.309999465942383,-0.6019999980926514 C18.309999465942383,-0.6019999980926514 18.309999465942383,1.6399999856948853 18.309999465942383,1.6399999856948853 C18.309999465942383,10.583000183105469 11.060999870300293,17.832000732421875 2.118000030517578,17.832000732421875 C2.118000030517578,17.832000732421875 -2.117000102996826,17.832000732421875 -2.117000102996826,17.832000732421875 C-11.0600004196167,17.832000732421875 -18.30900001525879,10.583000183105469 -18.30900001525879,1.6399999856948853 C-18.30900001525879,1.6399999856948853 -18.30900001525879,-0.6019999980926514 -18.30900001525879,-0.6019999980926514"/></g><g opacity="1" transform="matrix(1,0,0,1,248.75399780273438,284.14599609375)"><path class="primary" fill="rgb(249,201,192)" fill-opacity="1" d=" M-33.132999420166016,-34.43899917602539 C-33.132999420166016,-34.43899917602539 -32.882999420166016,-5.947000026702881 -32.882999420166016,-5.947000026702881 C-32.882999420166016,11.522000312805176 -18.71500015258789,25.68899917602539 -1.246000051498413,25.68899917602539 C-1.246000051498413,25.68899917602539 1.246000051498413,25.68899917602539 1.246000051498413,25.68899917602539 C18.71500015258789,25.68899917602539 32.882999420166016,11.522000312805176 32.882999420166016,-5.947000026702881 C32.882999420166016,-5.947000026702881 32.382999420166016,-34.8489990234375 32.382999420166016,-34.8489990234375"/></g><g opacity="0.5" transform="matrix(1,0,0,1,248.75399780273438,284.14599609375)" style="mix-blend-mode: multiply;"><path class="primary" fill="rgb(249,201,192)" fill-opacity="1" d=" M-32.882999420166016,-43.18899917602539 C-32.882999420166016,-43.18899917602539 -32.882999420166016,-5.947000026702881 -32.882999420166016,-5.947000026702881 C-32.882999420166016,-2.4170000553131104 -32.30400085449219,0.9789999723434448 -31.236000061035156,4.150000095367432 C-19.878999710083008,2.2790000438690186 -15.430999755859375,1.0010000467300415 -1.906000018119812,-2.367000102996826 C-1.906000018119812,-2.367000102996826 0.5109999775886536,-2.9690001010894775 0.5109999775886536,-2.9690001010894775 C17.461999893188477,-7.190000057220459 27.621000289916992,-12.859000205993652 32.88999938964844,-16.49799919128418 C32.88999938964844,-16.49799919128418 32.882999420166016,-42.3489990234375 32.882999420166016,-42.3489990234375"/></g></g><g transform="matrix(1,0,0,1,-35,-35)" opacity="1" style="display: block;"><g opacity="1" transform="matrix(1,0,0,1,249.43899536132812,220.58200073242188)"><path class="primary" fill="rgb(249,201,192)" fill-opacity="1" d=" M28.965999603271484,-115.40399932861328 C28.965999603271484,-115.40399932861328 61.93199920654297,-82.26899719238281 61.93199920654297,-82.26899719238281 C61.93199920654297,-82.26899719238281 61.965999603271484,-13.8149995803833 61.965999603271484,-13.8149995803833 C61.965999603271484,19.990999221801758 34.553001403808594,47.40399932861328 0.746999979019165,47.40399932861328 C0.746999979019165,47.40399932861328 -0.746999979019165,47.40399932861328 -0.746999979019165,47.40399932861328 C-34.553001403808594,47.40399932861328 -61.965999603271484,19.990999221801758 -61.965999603271484,-13.8149995803833 C-61.965999603271484,-13.8149995803833 -61.93199920654297,-64.84300231933594 -61.93199920654297,-64.84300231933594"/></g></g><g mask="url(#__lottie_element_2037_2)" style="mix-blend-mode: multiply; display: block;"><g transform="matrix(1,0,0,1,-35,-35)" opacity="0.5"><g opacity="1" transform="matrix(1,0,0,1,249.43899536132812,220.58200073242188)"><path class="primary" fill="rgb(249,201,192)" fill-opacity="1" d=" M28.965999603271484,-115.40399932861328 C28.965999603271484,-115.40399932861328 61.93199920654297,-82.26899719238281 61.93199920654297,-82.26899719238281 C61.93199920654297,-82.26899719238281 61.965999603271484,-13.8149995803833 61.965999603271484,-13.8149995803833 C61.965999603271484,19.990999221801758 34.553001403808594,47.40399932861328 0.746999979019165,47.40399932861328 C0.746999979019165,47.40399932861328 -0.746999979019165,47.40399932861328 -0.746999979019165,47.40399932861328 C-34.553001403808594,47.40399932861328 -61.965999603271484,19.990999221801758 -61.965999603271484,-13.8149995803833 C-61.965999603271484,-13.8149995803833 -61.93199920654297,-64.84300231933594 -61.93199920654297,-64.84300231933594"/></g></g></g><g transform="matrix(1,0,0,1,-35,-35)" opacity="1" style="display: block;"><g opacity="1" transform="matrix(1,0,0,1,245.9720001220703,128.26400756835938)"><path stroke-linecap="round" stroke-linejoin="round" fill-opacity="0" class="quaternary" stroke="rgb(178,104,54)" stroke-opacity="1" stroke-width="3" d=" M65.43299865722656,48.04800033569336 C65.43299865722656,48.04800033569336 68.04900360107422,8.4399995803833 27.444000244140625,-12.734000205993652 C27.444000244140625,-12.734000205993652 15.050999641418457,33.28799819946289 -62.39899826049805,49.32699966430664 C-62.39899826049805,49.32699966430664 -88.9530029296875,-28.865999221801758 -55.792999267578125,-47.85499954223633 C-52.077999114990234,-49.981998443603516 -45.981998443603516,-49.76499938964844 -42.37699890136719,-47.457000732421875 C-37.31700134277344,-44.21799850463867 -32.24100112915039,-38.9379997253418 -29.041000366210938,-36.2130012512207 C-26.61199951171875,-34.14400100708008 -23.5,-33.04199981689453 -20.312999725341797,-33.198001861572266 C-15.920000076293945,-33.41299819946289 -9.836000442504883,-34.67300033569336 -3.8299999237060547,-37.89400100708008 C44.22200012207031,-56.99300003051758 72.99500274658203,-35.01300048828125 72.40899658203125,-6.506999969482422 C71.86399841308594,20.020000457763672 74.89900207519531,42.069000244140625 65.43299865722656,48.04800033569336z"/><path class="quaternary" fill="rgb(178,104,54)" fill-opacity="1" d=" M65.43299865722656,48.04800033569336 C65.43299865722656,48.04800033569336 68.04900360107422,8.4399995803833 27.444000244140625,-12.734000205993652 C27.444000244140625,-12.734000205993652 15.050999641418457,33.28799819946289 -62.39899826049805,49.32699966430664 C-62.39899826049805,49.32699966430664 -88.9530029296875,-28.865999221801758 -55.792999267578125,-47.85499954223633 C-52.077999114990234,-49.981998443603516 -45.981998443603516,-49.76499938964844 -42.37699890136719,-47.457000732421875 C-37.31700134277344,-44.21799850463867 -32.24100112915039,-38.9379997253418 -29.041000366210938,-36.2130012512207 C-26.61199951171875,-34.14400100708008 -23.5,-33.04199981689453 -20.312999725341797,-33.198001861572266 C-15.920000076293945,-33.41299819946289 -9.836000442504883,-34.67300033569336 -3.8299999237060547,-37.89400100708008 C44.22200012207031,-56.99300003051758 72.99500274658203,-35.01300048828125 72.40899658203125,-6.506999969482422 C71.86399841308594,20.020000457763672 74.89900207519531,42.069000244140625 65.43299865722656,48.04800033569336z"/></g></g></g><g clip-path="url(#__lottie_element_1191)" transform="matrix(1,0,0,1,0,0)" opacity="1" style="display: none;"><g transform="matrix(1,0,0,1,-35,-35)" opacity="1" style="display: block;"><g opacity="1" transform="matrix(1,0,0,1,250,349.6310119628906)"><path class="tertiary" fill="rgb(75,179,253)" fill-opacity="1" d=" M35.236122131347656,-70.15614318847656 C35.236122131347656,-70.15614318847656 44.198246002197266,-69.59860229492188 44.198246002197266,-69.59860229492188 C86.74226379394531,-69.48194122314453 121.81500244140625,-35.69499969482422 121.81500244140625,7.784999847412109 C121.81500244140625,7.784999847412109 121.81500244140625,39.297000885009766 121.81500244140625,39.297000885009766 C121.81500244140625,47.75600051879883 114.9540023803711,54.617000579833984 106.49500274658203,54.617000579833984 C106.49500274658203,54.617000579833984 87.06400299072266,54.617000579833984 87.06400299072266,54.617000579833984 C48.57699966430664,57.60599899291992 49.06999969482422,71.43199920654297 16.898000717163086,71.43199920654297 C16.898000717163086,71.43199920654297 -16.898000717163086,71.43199920654297 -16.898000717163086,71.43199920654297 C-49.06999969482422,71.43199920654297 -48.57699966430664,57.60599899291992 -87.06400299072266,54.617000579833984 C-87.06400299072266,54.617000579833984 -106.49400329589844,54.617000579833984 -106.49400329589844,54.617000579833984 C-114.9530029296875,54.617000579833984 -121.81500244140625,47.75600051879883 -121.81500244140625,39.297000885009766 C-121.81500244140625,39.297000885009766 -121.81500244140625,7.784999847412109 -121.81500244140625,7.784999847412109 C-121.81500244140625,-35.69499969482422 -85.43512725830078,-70.52870178222656 -41.96808624267578,-70.21682739257812 C-41.96808624267578,-70.21682739257812 -32.913150787353516,-70.55927276611328 -32.913150787353516,-70.55927276611328"/></g></g><g mask="url(#__lottie_element_1201_2)" style="mix-blend-mode: multiply; display: block;"><g transform="matrix(1,0,0,1,-35,-35)" opacity="0.5"><g opacity="1" transform="matrix(1,0,0,1,250,349.6310119628906)"><path class="tertiary" fill="rgb(75,179,253)" fill-opacity="1" d=" M35.236122131347656,-70.15614318847656 C35.236122131347656,-70.15614318847656 44.198246002197266,-69.59860229492188 44.198246002197266,-69.59860229492188 C86.74226379394531,-69.48194122314453 121.81500244140625,-35.69499969482422 121.81500244140625,7.784999847412109 C121.81500244140625,7.784999847412109 121.81500244140625,39.297000885009766 121.81500244140625,39.297000885009766 C121.81500244140625,47.75600051879883 114.9540023803711,54.617000579833984 106.49500274658203,54.617000579833984 C106.49500274658203,54.617000579833984 87.06400299072266,54.617000579833984 87.06400299072266,54.617000579833984 C48.57699966430664,57.60599899291992 49.06999969482422,71.43199920654297 16.898000717163086,71.43199920654297 C16.898000717163086,71.43199920654297 -16.898000717163086,71.43199920654297 -16.898000717163086,71.43199920654297 C-49.06999969482422,71.43199920654297 -48.57699966430664,57.60599899291992 -87.06400299072266,54.617000579833984 C-87.06400299072266,54.617000579833984 -106.49400329589844,54.617000579833984 -106.49400329589844,54.617000579833984 C-114.9530029296875,54.617000579833984 -121.81500244140625,47.75600051879883 -121.81500244140625,39.297000885009766 C-121.81500244140625,39.297000885009766 -121.81500244140625,7.784999847412109 -121.81500244140625,7.784999847412109 C-121.81500244140625,-35.69499969482422 -85.43512725830078,-70.52870178222656 -41.96808624267578,-70.21682739257812 C-41.96808624267578,-70.21682739257812 -32.913150787353516,-70.55927276611328 -32.913150787353516,-70.55927276611328"/></g></g></g><g transform="matrix(1,0,0,1,-35,-35)" opacity="1" style="display: block;"><g opacity="1" transform="matrix(1,0,0,1,248.75399780273438,284.14599609375)"><path class="primary" fill="rgb(249,201,192)" fill-opacity="1" d=" M-31.216384887695312,-27.958454132080078 C-31.216384887695312,-27.958454132080078 -31.607389450073242,-5.030744552612305 -31.607389450073242,-5.030744552612305 C-31.72479248046875,12.262150764465332 -17.746679306030273,26.30255889892578 -0.28329381346702576,26.434255599975586 C-0.28329381346702576,26.434255599975586 2.207174777984619,26.453142166137695 2.207174777984619,26.453142166137695 C19.670560836791992,26.584836959838867 33.8656120300293,12.602620124816895 33.98301696777344,-4.690275192260742 C33.98301696777344,-4.690275192260742 33.895729064941406,-25.159862518310547 33.895729064941406,-25.159862518310547"/></g><g opacity="0.5" transform="matrix(1,0,0,1,248.75399780273438,284.14599609375)" style="mix-blend-mode: multiply;"><path class="primary" fill="rgb(249,201,192)" fill-opacity="1" d=" M-30.568340301513672,-28.851749420166016 C-30.568340301513672,-28.851749420166016 -31.148996353149414,-4.98477029800415 -31.148996353149414,-4.98477029800415 C-31.148996353149414,-1.4547703266143799 -30.54477882385254,3.0169363021850586 -29.521240234375,5.925811767578125 C-18.1529598236084,4.484165191650391 -13.693014144897461,3.4231643676757812 -0.13881532847881317,0.6696643233299255 C-0.13881532847881317,0.6696643233299255 2.2834935188293457,0.1771593987941742 2.2834935188293457,0.1771593987941742 C19.270992279052734,-3.274056911468506 29.262100219726562,-8.142746925354004 34.57423400878906,-11.33248519897461 C34.57423400878906,-11.33248519897461 34.7105712890625,-23.4023380279541 34.7105712890625,-23.4023380279541"/></g><g opacity="1" transform="matrix(1,0,0,1,300.9429931640625,362.25299072265625)"><path stroke-linecap="round" stroke-linejoin="round" fill-opacity="0" class="secondary" stroke="rgb(235,230,239)" stroke-opacity="1" stroke-width="7" d=" M-18.309999465942383,0.5090000033378601 C-18.309999465942383,0.5090000033378601 -18.309999465942383,0.5090000033378601 -18.309999465942383,0.5090000033378601 C-18.309999465942383,-9.619999885559082 -17.27400016784668,-17.832000732421875 -15.996999740600586,-17.832000732421875 C-15.996999740600586,-17.832000732421875 -15.753000259399414,-17.832000732421875 -15.753000259399414,-17.832000732421875 C-15.206999778747559,-17.815000534057617 -13.373000144958496,-16.492000579833984 -9.746000289916992,-12.746000289916992 C-3.246999979019165,-19.097999572753906 3.25,-19.097999572753906 9.746000289916992,-12.746000289916992 C13.373000144958496,-16.492000579833984 15.206999778747559,-17.815000534057617 15.753000259399414,-17.832000732421875 C15.753000259399414,-17.832000732421875 15.996999740600586,-17.832000732421875 15.996999740600586,-17.832000732421875 C17.27400016784668,-17.832000732421875 18.309999465942383,-9.619999885559082 18.309999465942383,0.5090000033378601 C18.309999465942383,0.5090000033378601 18.309999465942383,0.5090000033378601 18.309999465942383,0.5090000033378601 C18.309999465942383,0.5090000033378601 18.309999465942383,-0.6019999980926514 18.309999465942383,-0.6019999980926514 C18.309999465942383,-0.6019999980926514 18.309999465942383,1.6399999856948853 18.309999465942383,1.6399999856948853 C18.309999465942383,10.583000183105469 11.060999870300293,17.832000732421875 2.118000030517578,17.832000732421875 C2.118000030517578,17.832000732421875 -2.117000102996826,17.832000732421875 -2.117000102996826,17.832000732421875 C-11.0600004196167,17.832000732421875 -18.30900001525879,10.583000183105469 -18.30900001525879,1.6399999856948853 C-18.30900001525879,1.6399999856948853 -18.30900001525879,-0.6019999980926514 -18.30900001525879,-0.6019999980926514"/><path class="secondary" fill="rgb(235,230,239)" fill-opacity="1" d=" M-18.309999465942383,0.5090000033378601 C-18.309999465942383,0.5090000033378601 -18.309999465942383,0.5090000033378601 -18.309999465942383,0.5090000033378601 C-18.309999465942383,-9.619999885559082 -17.27400016784668,-17.832000732421875 -15.996999740600586,-17.832000732421875 C-15.996999740600586,-17.832000732421875 -15.753000259399414,-17.832000732421875 -15.753000259399414,-17.832000732421875 C-15.206999778747559,-17.815000534057617 -13.373000144958496,-16.492000579833984 -9.746000289916992,-12.746000289916992 C-3.246999979019165,-19.097999572753906 3.25,-19.097999572753906 9.746000289916992,-12.746000289916992 C13.373000144958496,-16.492000579833984 15.206999778747559,-17.815000534057617 15.753000259399414,-17.832000732421875 C15.753000259399414,-17.832000732421875 15.996999740600586,-17.832000732421875 15.996999740600586,-17.832000732421875 C17.27400016784668,-17.832000732421875 18.309999465942383,-9.619999885559082 18.309999465942383,0.5090000033378601 C18.309999465942383,0.5090000033378601 18.309999465942383,0.5090000033378601 18.309999465942383,0.5090000033378601 C18.309999465942383,0.5090000033378601 18.309999465942383,-0.6019999980926514 18.309999465942383,-0.6019999980926514 C18.309999465942383,-0.6019999980926514 18.309999465942383,1.6399999856948853 18.309999465942383,1.6399999856948853 C18.309999465942383,10.583000183105469 11.060999870300293,17.832000732421875 2.118000030517578,17.832000732421875 C2.118000030517578,17.832000732421875 -2.117000102996826,17.832000732421875 -2.117000102996826,17.832000732421875 C-11.0600004196167,17.832000732421875 -18.30900001525879,10.583000183105469 -18.30900001525879,1.6399999856948853 C-18.30900001525879,1.6399999856948853 -18.30900001525879,-0.6019999980926514 -18.30900001525879,-0.6019999980926514"/></g></g><g transform="matrix(0.9912009239196777,0.13236597180366516,-0.13236597180366516,0.9912009239196777,-0.205047607421875,-64.12141418457031)" opacity="1" style="display: block;"><g opacity="1" transform="matrix(1,0,0,1,249.43899536132812,220.58200073242188)"><path class="primary" fill="rgb(249,201,192)" fill-opacity="1" d=" M29,-118.90399932861328 C29,-118.90399932861328 62,-90.76899719238281 62,-90.76899719238281 C62,-90.76899719238281 61.965999603271484,-13.8149995803833 61.965999603271484,-13.8149995803833 C61.965999603271484,19.990999221801758 34.553001403808594,47.40399932861328 0.746999979019165,47.40399932861328 C0.746999979019165,47.40399932861328 -0.746999979019165,47.40399932861328 -0.746999979019165,47.40399932861328 C-34.553001403808594,47.40399932861328 -61.965999603271484,19.990999221801758 -61.965999603271484,-13.8149995803833 C-61.965999603271484,-13.8149995803833 -61.93199920654297,-90.34300231933594 -61.93199920654297,-90.34300231933594"/></g></g><g mask="url(#__lottie_element_1213_2)" style="mix-blend-mode: multiply; display: block;"><g transform="matrix(0.9912009239196777,0.13236597180366516,-0.13236597180366516,0.9912009239196777,-0.205047607421875,-64.12141418457031)" opacity="0.5"><g opacity="1" transform="matrix(1,0,0,1,249.43899536132812,220.58200073242188)"><path class="primary" fill="rgb(249,201,192)" fill-opacity="1" d=" M29,-118.90399932861328 C29,-118.90399932861328 62,-90.76899719238281 62,-90.76899719238281 C62,-90.76899719238281 61.965999603271484,-13.8149995803833 61.965999603271484,-13.8149995803833 C61.965999603271484,19.990999221801758 34.553001403808594,47.40399932861328 0.746999979019165,47.40399932861328 C0.746999979019165,47.40399932861328 -0.746999979019165,47.40399932861328 -0.746999979019165,47.40399932861328 C-34.553001403808594,47.40399932861328 -61.965999603271484,19.990999221801758 -61.965999603271484,-13.8149995803833 C-61.965999603271484,-13.8149995803833 -61.93199920654297,-90.34300231933594 -61.93199920654297,-90.34300231933594"/></g></g></g><g transform="matrix(0.9912009239196777,0.13236597180366516,-0.13236597180366516,0.9912009239196777,-0.205047607421875,-64.12141418457031)" opacity="1" style="display: block;"><g opacity="1" transform="matrix(1,0,0,1,245.9720001220703,128.26400756835938)"><path stroke-linecap="round" stroke-linejoin="round" fill-opacity="0" class="quaternary" stroke="rgb(178,104,54)" stroke-opacity="1" stroke-width="3" d=" M65.43299865722656,48.04800033569336 C65.43299865722656,48.04800033569336 68.04900360107422,8.4399995803833 27.444000244140625,-12.734000205993652 C27.444000244140625,-12.734000205993652 15.050999641418457,33.28799819946289 -62.39899826049805,49.32699966430664 C-62.39899826049805,49.32699966430664 -88.9530029296875,-28.865999221801758 -55.792999267578125,-47.85499954223633 C-52.077999114990234,-49.981998443603516 -45.981998443603516,-49.76499938964844 -42.37699890136719,-47.457000732421875 C-37.31700134277344,-44.21799850463867 -32.24100112915039,-38.9379997253418 -29.041000366210938,-36.2130012512207 C-26.61199951171875,-34.14400100708008 -23.5,-33.04199981689453 -20.312999725341797,-33.198001861572266 C-15.920000076293945,-33.41299819946289 -9.836000442504883,-34.67300033569336 -3.8299999237060547,-37.89400100708008 C44.22200012207031,-56.99300003051758 72.99500274658203,-35.01300048828125 72.40899658203125,-6.506999969482422 C71.86399841308594,20.020000457763672 74.89900207519531,42.069000244140625 65.43299865722656,48.04800033569336z"/><path class="quaternary" fill="rgb(178,104,54)" fill-opacity="1" d=" M65.43299865722656,48.04800033569336 C65.43299865722656,48.04800033569336 68.04900360107422,8.4399995803833 27.444000244140625,-12.734000205993652 C27.444000244140625,-12.734000205993652 15.050999641418457,33.28799819946289 -62.39899826049805,49.32699966430664 C-62.39899826049805,49.32699966430664 -88.9530029296875,-28.865999221801758 -55.792999267578125,-47.85499954223633 C-52.077999114990234,-49.981998443603516 -45.981998443603516,-49.76499938964844 -42.37699890136719,-47.457000732421875 C-37.31700134277344,-44.21799850463867 -32.24100112915039,-38.9379997253418 -29.041000366210938,-36.2130012512207 C-26.61199951171875,-34.14400100708008 -23.5,-33.04199981689453 -20.312999725341797,-33.198001861572266 C-15.920000076293945,-33.41299819946289 -9.836000442504883,-34.67300033569336 -3.8299999237060547,-37.89400100708008 C44.22200012207031,-56.99300003051758 72.99500274658203,-35.01300048828125 72.40899658203125,-6.506999969482422 C71.86399841308594,20.020000457763672 74.89900207519531,42.069000244140625 65.43299865722656,48.04800033569336z"/></g></g></g><g clip-path="url(#__lottie_element_1713)" transform="matrix(1,0,0,1,0,0)" opacity="1" style="display: none;"><g transform="matrix(1,0,0,1.000004529953003,-35,-35.00177001953125)" opacity="1" style="display: block;"><g opacity="1" transform="matrix(1,0,0,1,250,349.6310119628906)"><path class="tertiary" fill="rgb(75,179,253)" fill-opacity="1" d=" M34.12799835205078,-71.43199920654297 C34.12799835205078,-71.43199920654297 43.09600067138672,-70.93399810791016 43.09600067138672,-70.93399810791016 C86.57599639892578,-70.93399810791016 121.81500244140625,-35.69499969482422 121.81500244140625,7.784999847412109 C121.81500244140625,7.784999847412109 121.81500244140625,39.297000885009766 121.81500244140625,39.297000885009766 C121.81500244140625,47.75600051879883 114.9530029296875,54.617000579833984 106.49400329589844,54.617000579833984 C106.49400329589844,54.617000579833984 87.06400299072266,54.617000579833984 87.06400299072266,54.617000579833984 C48.57699966430664,57.60599899291992 49.06999969482422,71.43199920654297 16.898000717163086,71.43199920654297 C16.898000717163086,71.43199920654297 -16.898000717163086,71.43199920654297 -16.898000717163086,71.43199920654297 C-49.06999969482422,71.43199920654297 -48.57699966430664,57.60599899291992 -87.06400299072266,54.617000579833984 C-87.06400299072266,54.617000579833984 -106.49400329589844,54.617000579833984 -106.49400329589844,54.617000579833984 C-114.9530029296875,54.617000579833984 -121.81500244140625,47.75600051879883 -121.81500244140625,39.297000885009766 C-121.81500244140625,39.297000885009766 -121.81500244140625,7.784999847412109 -121.81500244140625,7.784999847412109 C-121.81500244140625,-35.69499969482422 -86.57599639892578,-70.93399810791016 -43.09600067138672,-70.93399810791016 C-43.09600067138672,-70.93399810791016 -34.12799835205078,-71.43199920654297 -34.12799835205078,-71.43199920654297"/></g></g><g mask="url(#__lottie_element_1771_2)" style="mix-blend-mode: multiply; display: block;"><g transform="matrix(1,0,0,1.000004529953003,-35,-35.00177001953125)" opacity="0.5"><g opacity="1" transform="matrix(1,0,0,1,250,349.6310119628906)"><path class="tertiary" fill="rgb(75,179,253)" fill-opacity="1" d=" M34.12799835205078,-71.43199920654297 C34.12799835205078,-71.43199920654297 43.09600067138672,-70.93399810791016 43.09600067138672,-70.93399810791016 C86.57599639892578,-70.93399810791016 121.81500244140625,-35.69499969482422 121.81500244140625,7.784999847412109 C121.81500244140625,7.784999847412109 121.81500244140625,39.297000885009766 121.81500244140625,39.297000885009766 C121.81500244140625,47.75600051879883 114.9530029296875,54.617000579833984 106.49400329589844,54.617000579833984 C106.49400329589844,54.617000579833984 87.06400299072266,54.617000579833984 87.06400299072266,54.617000579833984 C48.57699966430664,57.60599899291992 49.06999969482422,71.43199920654297 16.898000717163086,71.43199920654297 C16.898000717163086,71.43199920654297 -16.898000717163086,71.43199920654297 -16.898000717163086,71.43199920654297 C-49.06999969482422,71.43199920654297 -48.57699966430664,57.60599899291992 -87.06400299072266,54.617000579833984 C-87.06400299072266,54.617000579833984 -106.49400329589844,54.617000579833984 -106.49400329589844,54.617000579833984 C-114.9530029296875,54.617000579833984 -121.81500244140625,47.75600051879883 -121.81500244140625,39.297000885009766 C-121.81500244140625,39.297000885009766 -121.81500244140625,7.784999847412109 -121.81500244140625,7.784999847412109 C-121.81500244140625,-35.69499969482422 -86.57599639892578,-70.93399810791016 -43.09600067138672,-70.93399810791016 C-43.09600067138672,-70.93399810791016 -34.12799835205078,-71.43199920654297 -34.12799835205078,-71.43199920654297"/></g></g></g><g transform="matrix(1,0,0,1.000004529953003,-35,-35.00177001953125)" opacity="1" style="display: block;"><g opacity="1" transform="matrix(1,0,0,1,300.9429931640625,362.25299072265625)"><path stroke-linecap="round" stroke-linejoin="round" fill-opacity="0" class="secondary" stroke="rgb(235,230,239)" stroke-opacity="1" stroke-width="7" d=" M-18.309999465942383,0.5090000033378601 C-18.309999465942383,0.5090000033378601 -18.309999465942383,0.5090000033378601 -18.309999465942383,0.5090000033378601 C-18.309999465942383,-9.619999885559082 -17.27400016784668,-17.832000732421875 -15.996999740600586,-17.832000732421875 C-15.996999740600586,-17.832000732421875 -15.753000259399414,-17.832000732421875 -15.753000259399414,-17.832000732421875 C-15.206999778747559,-17.815000534057617 -13.373000144958496,-16.492000579833984 -9.746000289916992,-12.746000289916992 C-3.246999979019165,-19.097999572753906 3.25,-19.097999572753906 9.746000289916992,-12.746000289916992 C13.373000144958496,-16.492000579833984 15.206999778747559,-17.815000534057617 15.753000259399414,-17.832000732421875 C15.753000259399414,-17.832000732421875 15.996999740600586,-17.832000732421875 15.996999740600586,-17.832000732421875 C17.27400016784668,-17.832000732421875 18.309999465942383,-9.619999885559082 18.309999465942383,0.5090000033378601 C18.309999465942383,0.5090000033378601 18.309999465942383,0.5090000033378601 18.309999465942383,0.5090000033378601 C18.309999465942383,0.5090000033378601 18.309999465942383,-0.6019999980926514 18.309999465942383,-0.6019999980926514 C18.309999465942383,-0.6019999980926514 18.309999465942383,1.6399999856948853 18.309999465942383,1.6399999856948853 C18.309999465942383,10.583000183105469 11.060999870300293,17.832000732421875 2.118000030517578,17.832000732421875 C2.118000030517578,17.832000732421875 -2.117000102996826,17.832000732421875 -2.117000102996826,17.832000732421875 C-11.0600004196167,17.832000732421875 -18.30900001525879,10.583000183105469 -18.30900001525879,1.6399999856948853 C-18.30900001525879,1.6399999856948853 -18.30900001525879,-0.6019999980926514 -18.30900001525879,-0.6019999980926514"/><path class="secondary" fill="rgb(235,230,239)" fill-opacity="1" d=" M-18.309999465942383,0.5090000033378601 C-18.309999465942383,0.5090000033378601 -18.309999465942383,0.5090000033378601 -18.309999465942383,0.5090000033378601 C-18.309999465942383,-9.619999885559082 -17.27400016784668,-17.832000732421875 -15.996999740600586,-17.832000732421875 C-15.996999740600586,-17.832000732421875 -15.753000259399414,-17.832000732421875 -15.753000259399414,-17.832000732421875 C-15.206999778747559,-17.815000534057617 -13.373000144958496,-16.492000579833984 -9.746000289916992,-12.746000289916992 C-3.246999979019165,-19.097999572753906 3.25,-19.097999572753906 9.746000289916992,-12.746000289916992 C13.373000144958496,-16.492000579833984 15.206999778747559,-17.815000534057617 15.753000259399414,-17.832000732421875 C15.753000259399414,-17.832000732421875 15.996999740600586,-17.832000732421875 15.996999740600586,-17.832000732421875 C17.27400016784668,-17.832000732421875 18.309999465942383,-9.619999885559082 18.309999465942383,0.5090000033378601 C18.309999465942383,0.5090000033378601 18.309999465942383,0.5090000033378601 18.309999465942383,0.5090000033378601 C18.309999465942383,0.5090000033378601 18.309999465942383,-0.6019999980926514 18.309999465942383,-0.6019999980926514 C18.309999465942383,-0.6019999980926514 18.309999465942383,1.6399999856948853 18.309999465942383,1.6399999856948853 C18.309999465942383,10.583000183105469 11.060999870300293,17.832000732421875 2.118000030517578,17.832000732421875 C2.118000030517578,17.832000732421875 -2.117000102996826,17.832000732421875 -2.117000102996826,17.832000732421875 C-11.0600004196167,17.832000732421875 -18.30900001525879,10.583000183105469 -18.30900001525879,1.6399999856948853 C-18.30900001525879,1.6399999856948853 -18.30900001525879,-0.6019999980926514 -18.30900001525879,-0.6019999980926514"/></g></g><g transform="matrix(1,0,0,1.000004529953003,-35,-35.00177001953125)" opacity="1" style="display: block;"><g opacity="1" transform="matrix(1,0,0,1,248.75399780273438,284.14599609375)"><path class="primary" fill="rgb(249,201,192)" fill-opacity="1" d=" M-32.882999420166016,-25.68899917602539 C-32.882999420166016,-25.68899917602539 -32.882999420166016,-5.947000026702881 -32.882999420166016,-5.947000026702881 C-32.882999420166016,11.522000312805176 -18.71500015258789,25.68899917602539 -1.246000051498413,25.68899917602539 C-1.246000051498413,25.68899917602539 1.246000051498413,25.68899917602539 1.246000051498413,25.68899917602539 C18.71500015258789,25.68899917602539 32.882999420166016,11.522000312805176 32.882999420166016,-5.947000026702881 C32.882999420166016,-5.947000026702881 32.882999420166016,-24.849000930786133 32.882999420166016,-24.849000930786133"/></g></g><g transform="matrix(1,0,0,1.000004529953003,-35,-35.00177001953125)" opacity="0.5" style="mix-blend-mode: multiply; display: block;"><g opacity="1" transform="matrix(1,0,0,1,248.75399780273438,284.14599609375)"><path class="primary" fill="rgb(249,201,192)" fill-opacity="1" d=" M-32.882999420166016,-25.68899917602539 C-32.882999420166016,-25.68899917602539 -32.882999420166016,-5.947000026702881 -32.882999420166016,-5.947000026702881 C-32.882999420166016,-2.4170000553131104 -32.30400085449219,0.9789999723434448 -31.236000061035156,4.150000095367432 C-19.878999710083008,2.2790000438690186 -15.430999755859375,1.0010000467300415 -1.906000018119812,-2.367000102996826 C-1.906000018119812,-2.367000102996826 0.5109999775886536,-2.9690001010894775 0.5109999775886536,-2.9690001010894775 C17.461999893188477,-7.190000057220459 27.621000289916992,-12.859000205993652 32.88999938964844,-16.49799919128418 C32.88999938964844,-16.49799919128418 32.882999420166016,-24.849000930786133 32.882999420166016,-24.849000930786133"/></g></g><g transform="matrix(1,0,0,1,-35,-35)" opacity="1" style="display: block;"><g opacity="1" transform="matrix(1,0,0,1,249.43899536132812,220.58200073242188)"><path class="primary" fill="rgb(249,201,192)" fill-opacity="1" d=" M61.93199920654297,-104.40399932861328 C61.93199920654297,-104.40399932861328 61.965999603271484,-44.26900100708008 61.965999603271484,-44.26900100708008 C61.965999603271484,-44.26900100708008 61.965999603271484,-13.8149995803833 61.965999603271484,-13.8149995803833 C61.965999603271484,19.990999221801758 34.553001403808594,47.40399932861328 0.746999979019165,47.40399932861328 C0.746999979019165,47.40399932861328 -0.746999979019165,47.40399932861328 -0.746999979019165,47.40399932861328 C-34.553001403808594,47.40399932861328 -61.965999603271484,19.990999221801758 -61.965999603271484,-13.8149995803833 C-61.965999603271484,-13.8149995803833 -61.93199920654297,-110.34300231933594 -61.93199920654297,-110.34300231933594"/></g></g><g mask="url(#__lottie_element_1758_2)" style="mix-blend-mode: multiply; display: block;"><g transform="matrix(1,0,0,1,-35,-35)" opacity="0.5"><g opacity="1" transform="matrix(1,0,0,1,249.43899536132812,220.58200073242188)"><path class="primary" fill="rgb(249,201,192)" fill-opacity="1" d=" M61.93199920654297,-104.40399932861328 C61.93199920654297,-104.40399932861328 61.965999603271484,-44.26900100708008 61.965999603271484,-44.26900100708008 C61.965999603271484,-44.26900100708008 61.965999603271484,-13.8149995803833 61.965999603271484,-13.8149995803833 C61.965999603271484,19.990999221801758 34.553001403808594,47.40399932861328 0.746999979019165,47.40399932861328 C0.746999979019165,47.40399932861328 -0.746999979019165,47.40399932861328 -0.746999979019165,47.40399932861328 C-34.553001403808594,47.40399932861328 -61.965999603271484,19.990999221801758 -61.965999603271484,-13.8149995803833 C-61.965999603271484,-13.8149995803833 -61.93199920654297,-110.34300231933594 -61.93199920654297,-110.34300231933594"/></g></g></g><g transform="matrix(1,0,0,1,-35,-35)" opacity="1" style="display: block;"><g opacity="1" transform="matrix(1,0,0,1,245.9720001220703,128.26400756835938)"><path stroke-linecap="round" stroke-linejoin="round" fill-opacity="0" class="quaternary" stroke="rgb(178,104,54)" stroke-opacity="1" stroke-width="3" d=" M65.43299865722656,48.04800033569336 C65.43299865722656,48.04800033569336 68.04900360107422,8.4399995803833 27.444000244140625,-12.734000205993652 C27.444000244140625,-12.734000205993652 15.050999641418457,33.28799819946289 -62.39899826049805,49.32699966430664 C-62.39899826049805,49.32699966430664 -88.9530029296875,-28.865999221801758 -55.792999267578125,-47.85499954223633 C-52.077999114990234,-49.981998443603516 -45.981998443603516,-49.76499938964844 -42.37699890136719,-47.457000732421875 C-37.31700134277344,-44.21799850463867 -32.24100112915039,-38.9379997253418 -29.041000366210938,-36.2130012512207 C-26.61199951171875,-34.14400100708008 -23.5,-33.04199981689453 -20.312999725341797,-33.198001861572266 C-15.920000076293945,-33.41299819946289 -9.836000442504883,-34.67300033569336 -3.8299999237060547,-37.89400100708008 C44.22200012207031,-56.99300003051758 72.99500274658203,-35.01300048828125 72.40899658203125,-6.506999969482422 C71.86399841308594,20.020000457763672 74.89900207519531,42.069000244140625 65.43299865722656,48.04800033569336z"/><path class="quaternary" fill="rgb(178,104,54)" fill-opacity="1" d=" M65.43299865722656,48.04800033569336 C65.43299865722656,48.04800033569336 68.04900360107422,8.4399995803833 27.444000244140625,-12.734000205993652 C27.444000244140625,-12.734000205993652 15.050999641418457,33.28799819946289 -62.39899826049805,49.32699966430664 C-62.39899826049805,49.32699966430664 -88.9530029296875,-28.865999221801758 -55.792999267578125,-47.85499954223633 C-52.077999114990234,-49.981998443603516 -45.981998443603516,-49.76499938964844 -42.37699890136719,-47.457000732421875 C-37.31700134277344,-44.21799850463867 -32.24100112915039,-38.9379997253418 -29.041000366210938,-36.2130012512207 C-26.61199951171875,-34.14400100708008 -23.5,-33.04199981689453 -20.312999725341797,-33.198001861572266 C-15.920000076293945,-33.41299819946289 -9.836000442504883,-34.67300033569336 -3.8299999237060547,-37.89400100708008 C44.22200012207031,-56.99300003051758 72.99500274658203,-35.01300048828125 72.40899658203125,-6.506999969482422 C71.86399841308594,20.020000457763672 74.89900207519531,42.069000244140625 65.43299865722656,48.04800033569336z"/></g></g></g></g></svg>