<svg xmlns="http://www.w3.org/2000/svg" xmlns:xlink="http://www.w3.org/1999/xlink" viewBox="0 0 430 430" width="430" height="430" preserveAspectRatio="xMidYMid meet" style="width: 100%; height: 100%; transform: translate3d(0px, 0px, 0px); content-visibility: visible;"><defs><clipPath id="__lottie_element_3716"><rect width="430" height="430" x="0" y="0"/></clipPath><clipPath id="__lottie_element_3718"><path d="M0,0 L430,0 L430,430 L0,430z"/></clipPath><clipPath id="__lottie_element_3726"><path d="M0,0 L500,0 L500,500 L0,500z"/></clipPath><g id="__lottie_element_3729"><g transform="matrix(1,0,0,1,215.0019989013672,215.00100708007812)" opacity="1" style="display: block;"><g opacity="1" transform="matrix(1,0,0,1,0,0)"><path fill="rgb(75,179,253)" fill-opacity="1" d=" M166.0500030517578,0 C166.0500030517578,91.70600128173828 91.70600128173828,166.0500030517578 0,166.0500030517578 C-91.70600128173828,166.0500030517578 -166.0500030517578,91.70600128173828 -166.0500030517578,0 C-166.0500030517578,-91.70600128173828 -91.70600128173828,-166.0500030517578 0,-166.0500030517578 C91.70600128173828,-166.0500030517578 166.0500030517578,-91.70600128173828 166.0500030517578,0z"/></g></g></g><mask id="__lottie_element_3729_1" mask-type="alpha"><use xmlns:ns1="http://www.w3.org/1999/xlink" ns1:href="#__lottie_element_3729"/></mask></defs><g clip-path="url(#__lottie_element_3716)"><g clip-path="url(#__lottie_element_3718)" transform="matrix(1,0,0,1,0,0)" opacity="1" style="display: block;"><g transform="matrix(1,0,0,1,215.0019989013672,215.00100708007812)" opacity="1" style="display: block;"><g opacity="1" transform="matrix(1,0,0,1,0,0)"><path class="secondary" fill="rgb(75,179,253)" fill-opacity="1" d=" M166.0500030517578,0 C166.0500030517578,91.70600128173828 91.70600128173828,166.0500030517578 0,166.0500030517578 C-91.70600128173828,166.0500030517578 -166.0500030517578,91.70600128173828 -166.0500030517578,0 C-166.0500030517578,-91.70600128173828 -91.70600128173828,-166.0500030517578 0,-166.0500030517578 C91.70600128173828,-166.0500030517578 166.0500030517578,-91.70600128173828 166.0500030517578,0z"/></g></g><g mask="url(#__lottie_element_3729_1)" style="display: block;"><g clip-path="url(#__lottie_element_3726)" transform="matrix(0.8999999761581421,0,0,0.8999999761581421,-10,-10)" opacity="1"><g transform="matrix(3.690000057220459,0,0,3.690000057220459,-217.48793029785156,249.997314453125)" opacity="1" style="display: block;"><g opacity="1" transform="matrix(1,0,0,1,0,0)"><path stroke-linecap="round" stroke-linejoin="round" fill-opacity="0" class="primary" stroke="rgb(235,230,239)" stroke-opacity="1" stroke-width="2" d=" M126.66699981689453,50 C109.63800048828125,50 95.83300018310547,27.61400032043457 95.83300018310547,0 C95.83300018310547,-27.61400032043457 109.63800048828125,-50 126.66699981689453,-50"/></g></g><g transform="matrix(3.690000057220459,0,0,3.690000057220459,-217.48793029785156,249.997314453125)" opacity="1" style="display: block;"><g opacity="1" transform="matrix(1,0,0,1,0,0)"><path stroke-linecap="round" stroke-linejoin="round" fill-opacity="0" class="primary" stroke="rgb(235,230,239)" stroke-opacity="1" stroke-width="2" d=" M126.66699981689453,50 C126.75,41.25 126.83300018310547,27.61400032043457 126.83300018310547,0 C126.83300018310547,-27.61400032043457 126.75,-34.25 126.66699981689453,-50"/></g></g><g transform="matrix(3.690000057220459,0,0,3.690000057220459,-217.48793029785156,249.997314453125)" opacity="1" style="display: block;"><g opacity="1" transform="matrix(1,0,0,1,0,0)"><path stroke-linecap="round" stroke-linejoin="round" fill-opacity="0" class="primary" stroke="rgb(235,230,239)" stroke-opacity="1" stroke-width="2" d=" M126.66699981689453,50 C144.2480010986328,50 158.5,27.61400032043457 158.5,0 C158.5,-27.61400032043457 144.2480010986328,-50 126.66699981689453,-50"/></g></g><g transform="matrix(3.690000057220459,0,0,3.690000057220459,-217.48793029785156,249.997314453125)" opacity="1" style="display: block;"><g opacity="1" transform="matrix(1,0,0,1,0,0)"><path stroke-linecap="round" stroke-linejoin="round" fill-opacity="0" class="primary" stroke="rgb(235,230,239)" stroke-opacity="1" stroke-width="2" d=" M76.66699981689453,0 C76.66699981689453,0 176.66700744628906,0 176.66700744628906,0"/></g></g><g transform="matrix(3.690000057220459,0,0,3.690000057220459,-217.48423767089844,249.997314453125)" opacity="1" style="display: block;"><g opacity="1" transform="matrix(1,0,0,1,0,0)"><path stroke-linecap="round" stroke-linejoin="round" fill-opacity="0" class="primary" stroke="rgb(235,230,239)" stroke-opacity="1" stroke-width="2" d=" M158.9929962158203,-38.13800048828125 C150.2830047607422,-33.577999114990234 139.0030059814453,-30.827999114990234 126.6729965209961,-30.827999114990234 C114.34300231933594,-30.827999114990234 103.06300354003906,-33.577999114990234 94.34300231933594,-38.13800048828125"/></g></g><g transform="matrix(3.690000057220459,0,0,3.690000057220459,-217.48423767089844,249.997314453125)" opacity="1" style="display: block;"><g opacity="1" transform="matrix(1,0,0,1,0,0)"><path stroke-linecap="round" stroke-linejoin="round" fill-opacity="0" class="primary" stroke="rgb(235,230,239)" stroke-opacity="1" stroke-width="2" d=" M94.34300231933594,38.13999938964844 C103.0530014038086,33.58000183105469 114.33300018310547,30.829999923706055 126.66300201416016,30.829999923706055 C138.9929962158203,30.829999923706055 150.2729949951172,33.58000183105469 158.9929962158203,38.13999938964844"/></g></g></g></g><g transform="matrix(1,0,0,1,131.97500610351562,214.99899291992188)" opacity="0.5" style="mix-blend-mode: multiply; display: block;"><g opacity="1" transform="matrix(1,0,0,1,0,0)" style="mix-blend-mode: multiply;"><path class="secondary" fill="rgb(75,179,253)" fill-opacity="1" d=" M83.0250015258789,166.0500030517578 C-8.675000190734863,166.0500030517578 -83.0250015258789,91.70999908447266 -83.0250015258789,0 C-83.0250015258789,-91.70999908447266 -8.675000190734863,-166.0500030517578 83.0250015258789,-166.0500030517578 C48.55500030517578,-166.0500030517578 20.614999771118164,-91.70999908447266 20.614999771118164,0 C20.614999771118164,91.70999908447266 48.55500030517578,166.0500030517578 83.0250015258789,166.0500030517578z"/></g></g></g></g></svg>