<svg xmlns="http://www.w3.org/2000/svg" xmlns:xlink="http://www.w3.org/1999/xlink" viewBox="0 0 430 430" width="430" height="430" preserveAspectRatio="xMidYMid meet" style="width: 100%; height: 100%; transform: translate3d(0px, 0px, 0px); content-visibility: visible;"><defs><clipPath id="__lottie_element_2447"><rect width="430" height="430" x="0" y="0"/></clipPath><clipPath id="__lottie_element_2449"><path d="M0,0 L430,0 L430,430 L0,430z"/></clipPath><g id="__lottie_element_2505"><g transform="matrix(1,0,0,1,215.1969757080078,242)" opacity="1" style="display: block;"><g opacity="1" transform="matrix(1,0,0,1,0,0)"><path class="primary" fill="rgb(75,179,253)" fill-opacity="1" d=" M133.7421112060547,79.67415618896484 C133.7421112060547,79.67415618896484 131.16358947753906,79.67415618896484 131.16358947753906,79.67415618896484 C131.16358947753906,79.67415618896484 131.16358947753906,13.659153938293457 131.16358947753906,13.659153938293457 C131.16358947753906,2.605153799057007 131.7402801513672,-6.354924201965332 132.452392578125,-6.354924201965332 C132.452392578125,-6.354924201965332 132.452392578125,-6.354924201965332 132.452392578125,-6.354924201965332 C133.1645050048828,-6.354924201965332 133.7421112060547,2.605153799057007 133.7421112060547,13.659153938293457 C133.7421112060547,13.659153938293457 133.7421112060547,79.67415618896484 133.7421112060547,79.67415618896484z M136.71243286132812,79.67415618896484 C136.71243286132812,79.67415618896484 134.1339111328125,79.67415618896484 134.1339111328125,79.67415618896484 C134.1339111328125,79.67415618896484 134.1339111328125,13.659153938293457 134.1339111328125,13.659153938293457 C134.1339111328125,2.605153799057007 134.71060180664062,-6.354924201965332 135.42271423339844,-6.354924201965332 C135.42271423339844,-6.354924201965332 135.42271423339844,-6.354924201965332 135.42271423339844,-6.354924201965332 C136.1348114013672,-6.354924201965332 136.71243286132812,2.605153799057007 136.71243286132812,13.659153938293457 C136.71243286132812,13.659153938293457 136.71243286132812,79.67415618896484 136.71243286132812,79.67415618896484z M141.98614501953125,79.67415618896484 C141.98614501953125,79.67415618896484 139.40855407714844,79.67415618896484 139.40855407714844,79.67415618896484 C139.40855407714844,79.67415618896484 139.40855407714844,13.659153938293457 139.40855407714844,13.659153938293457 C139.40855407714844,2.605153799057007 139.98524475097656,-6.354924201965332 140.69735717773438,-6.354924201965332 C140.69735717773438,-6.354924201965332 140.69735717773438,-6.354924201965332 140.69735717773438,-6.354924201965332 C141.4094696044922,-6.354924201965332 141.98614501953125,2.605153799057007 141.98614501953125,13.659153938293457 C141.98614501953125,13.659153938293457 141.98614501953125,79.67415618896484 141.98614501953125,79.67415618896484z"/></g></g></g><filter id="__lottie_element_2508" filterUnits="objectBoundingBox" x="0%" y="0%" width="100%" height="100%"><feComponentTransfer in="SourceGraphic"><feFuncA type="table" tableValues="1.0 0.0"/></feComponentTransfer></filter><mask id="__lottie_element_2505_2" mask-type="alpha"><g filter="url(#__lottie_element_2508)"><rect width="430" height="430" x="0" y="0" fill="#ffffff" opacity="0"/><use xmlns:ns1="http://www.w3.org/1999/xlink" ns1:href="#__lottie_element_2505"/></g></mask></defs><g clip-path="url(#__lottie_element_2447)"><g clip-path="url(#__lottie_element_2449)" transform="matrix(1,0,0,1,0,0)" opacity="1" style="display: block;"><g transform="matrix(1,0,0,1,223.07339477539062,239)" opacity="1" style="display: block;"><path class="primary" fill="rgb(146,20,12)" fill-opacity="1" d=" M45.417510986328125,-155.2574462890625 C45.417510986328125,-155.2574462890625 24.393001556396484,-156.9552764892578 21.266080856323242,-156.7793731689453 C19.058391571044922,-156.65521240234375 -7.0236711502075195,-154.49649047851562 -7.0236711502075195,-154.49649047851562 C-7.0236711502075195,-154.49649047851562 -7.0236711502075195,-187.82525634765625 -7.0236711502075195,-187.82525634765625 C-7.0236711502075195,-187.82525634765625 16.162410736083984,-188.40101623535156 18.402820587158203,-189.6407470703125 C20.680362701416016,-190.90087890625 45.46113967895508,-188.51426696777344 45.46113967895508,-188.51426696777344 C45.46113967895508,-188.51426696777344 29.853445053100586,-173.39620971679688 29.853445053100586,-173.39620971679688 C29.853445053100586,-173.39620971679688 45.417510986328125,-155.2574462890625 45.417510986328125,-155.2574462890625z"/><g opacity="1" transform="matrix(1,0,0,1,0,0)"><path stroke-linecap="round" stroke-linejoin="round" fill-opacity="0" class="primary" stroke="rgb(146,20,12)" stroke-opacity="1" stroke-width="7" d=" M45.417510986328125,-155.2574462890625 C45.417510986328125,-155.2574462890625 24.393001556396484,-156.9552764892578 21.266080856323242,-156.7793731689453 C19.058391571044922,-156.65521240234375 -7.0236711502075195,-154.49649047851562 -7.0236711502075195,-154.49649047851562 C-7.0236711502075195,-154.49649047851562 -7.0236711502075195,-187.82525634765625 -7.0236711502075195,-187.82525634765625 C-7.0236711502075195,-187.82525634765625 16.162410736083984,-188.40101623535156 18.402820587158203,-189.6407470703125 C20.680362701416016,-190.90087890625 45.46113967895508,-188.51426696777344 45.46113967895508,-188.51426696777344 C45.46113967895508,-188.51426696777344 29.853445053100586,-173.39620971679688 29.853445053100586,-173.39620971679688 C29.853445053100586,-173.39620971679688 45.417510986328125,-155.2574462890625 45.417510986328125,-155.2574462890625z"/></g></g><g transform="matrix(1,0,0,1,-3.1186065673828125,0.477996826171875)" opacity="1" style="display: block;"><g opacity="1" transform="matrix(1,0,0,1,0,0)"><g opacity="1" transform="matrix(1,0,0,1,215,86.05999755859375)"><path stroke-linecap="round" stroke-linejoin="round" fill-opacity="0" class="primary" stroke="rgb(146,20,12)" stroke-opacity="1" stroke-width="12" d=" M0,-38.91999816894531 C0,-38.91999816894531 0,38.91999816894531 0,38.91999816894531"/></g><g opacity="0.5" transform="matrix(1,0,0,1,215,86.05999755859375)" style="mix-blend-mode: multiply;"><path stroke-linecap="round" stroke-linejoin="round" fill-opacity="0" class="primary" stroke="rgb(146,20,12)" stroke-opacity="1" stroke-width="12" d=" M0,-38.91999816894531 C0,-38.91999816894531 0,38.91999816894531 0,38.91999816894531"/></g></g></g><g transform="matrix(1,0,0,1,215,215)" opacity="1" style="display: block;"><g opacity="1" transform="matrix(1,0,0,1,0,0)"><path class="quinary" fill="rgb(235,230,239)" fill-opacity="1" d=" M133.8306121826172,-13.517820358276367 C133.8306121826172,-13.517820358276367 128.37155151367188,-13.505940437316895 128.37155151367188,-13.505940437316895 C128.37155151367188,-13.505940437316895 128.3656005859375,159.267822265625 128.3656005859375,159.267822265625 C128.3656005859375,159.267822265625 133.8306121826172,159.7559356689453 133.8306121826172,159.7559356689453 C133.8306121826172,159.7559356689453 133.8306121826172,-13.517820358276367 133.8306121826172,-13.517820358276367z"/></g></g><g transform="matrix(1,0,0,1,213.75,214.75)" opacity="1" style="display: block;"><g opacity="1" transform="matrix(1,0,0,1,0,0)"><path class="secondary" fill="rgb(58,51,71)" fill-opacity="1" d=" M133.5988311767578,-79.73812103271484 C133.5988311767578,-79.73812103271484 129.6283416748047,-79.75 129.6283416748047,-79.75 C129.6283416748047,-79.75 165.82510375976562,-13.16903018951416 165.82510375976562,-13.16903018951416 C165.82510375976562,-13.16903018951416 172.26731872558594,-13.138030052185059 172.26731872558594,-13.138030052185059 C172.26731872558594,-13.138030052185059 133.5988311767578,-79.73812103271484 133.5988311767578,-79.73812103271484z"/></g></g><g style="display: block;" transform="matrix(1,0,0,1,215,215)" opacity="1"><g opacity="1" transform="matrix(1,0,0,1,0,0)"><path class="secondary" fill="rgb(58,51,71)" fill-opacity="1" d=" M4.3978047370910645,-105.97177124023438 C4.3978047370910645,-105.97177124023438 -1.7488479614257812,-105.84973907470703 -1.7488479614257812,-105.84973907470703 C-1.7488479614257812,-105.84973907470703 24.276439666748047,-79.13761901855469 24.276439666748047,-79.13761901855469 C24.276439666748047,-79.13761901855469 30.524433135986328,-79.11756134033203 30.524433135986328,-79.11756134033203 C30.524433135986328,-79.11756134033203 4.3978047370910645,-105.97177124023438 4.3978047370910645,-105.97177124023438z"/><path class="secondary" style="mix-blend-mode: multiply;" fill="rgb(58,51,71)" fill-opacity="0.5" d=" M4.3978047370910645,-105.97177124023438 C4.3978047370910645,-105.97177124023438 -1.7488479614257812,-105.84973907470703 -1.7488479614257812,-105.84973907470703 C-1.7488479614257812,-105.84973907470703 24.276439666748047,-79.13761901855469 24.276439666748047,-79.13761901855469 C24.276439666748047,-79.13761901855469 30.524433135986328,-79.11756134033203 30.524433135986328,-79.11756134033203 C30.524433135986328,-79.11756134033203 4.3978047370910645,-105.97177124023438 4.3978047370910645,-105.97177124023438z"/></g></g><g transform="matrix(1,0,0,1,0,0)" opacity="1" style="display: block;"><g opacity="1" transform="matrix(1,0,0,1,0,0)"><g opacity="1" transform="matrix(1,0,0,1,215,242.30999755859375)"><path class="quinary" fill="rgb(235,230,239)" fill-opacity="1" d=" M142.3304901123047,-40.64432144165039 C142.3304901123047,-40.64432144165039 142.33047485351562,129.8090057373047 142.33047485351562,129.8090057373047 C142.33047485351562,131.468994140625 141.00645446777344,132.8090057373047 139.36630249023438,132.8090057373047 C139.36630249023438,132.8090057373047 -144.75787353515625,132.8090057373047 -144.75787353515625,132.8090057373047 C-146.39804077148438,132.8090057373047 -147.7220458984375,131.468994140625 -147.7220458984375,129.8090057373047 C-147.7220458984375,129.8090057373047 -147.7220458984375,-40.6510009765625 -147.7220458984375,-40.6510009765625 C-147.7220458984375,-40.6510009765625 -94.9798355102539,-40.6510009765625 -94.9798355102539,-40.6510009765625 C-94.9798355102539,-40.6510009765625 -4.79046106338501,-131.93099975585938 -4.79046106338501,-131.93099975585938 C-3.634432315826416,-133.1009979248047 -1.7571476697921753,-133.1009979248047 -0.6011190414428711,-131.93099975585938 C-0.6011190414428711,-131.93099975585938 89.59046936035156,-40.64432144165039 89.59046936035156,-40.64432144165039 C89.59046936035156,-40.64432144165039 142.3304901123047,-40.64432144165039 142.3304901123047,-40.64432144165039z"/></g><g opacity="0.5" transform="matrix(1,0,0,1,149.27000427246094,242.30999755859375)" style="mix-blend-mode: multiply;"><path class="quinary" fill="rgb(235,230,239)" fill-opacity="1" d=" M78.17115783691406,-118.73100280761719 C78.17115783691406,-118.73100280761719 -11.3068208694458,-28.180999755859375 -11.3068208694458,-28.180999755859375 C-11.3068208694458,-28.180999755859375 -20.475929260253906,-18.900999069213867 -20.475929260253906,-18.900999069213867 C-20.475929260253906,-18.900999069213867 -60.48215866088867,-18.900999069213867 -60.48215866088867,-18.900999069213867 C-60.48215866088867,-18.900999069213867 -60.48215866088867,132.8090057373047 -60.48215866088867,132.8090057373047 C-60.48215866088867,132.8090057373047 -79.02787780761719,132.8090057373047 -79.02787780761719,132.8090057373047 C-80.66803741455078,132.8090057373047 -81.99205017089844,131.468994140625 -81.99205017089844,129.8090057373047 C-81.99205017089844,129.8090057373047 -81.99205017089844,-40.6510009765625 -81.99205017089844,-40.6510009765625 C-81.99205017089844,-40.6510009765625 -29.23995590209961,-40.6510009765625 -29.23995590209961,-40.6510009765625 C-29.23995590209961,-40.6510009765625 60.93954086303711,-131.93099975585938 60.93954086303711,-131.93099975585938 C62.0955696105957,-133.1009979248047 63.97285079956055,-133.1009979248047 65.1288833618164,-131.93099975585938 C65.1288833618164,-131.93099975585938 78.17115783691406,-118.73100280761719 78.17115783691406,-118.73100280761719z"/></g></g><g opacity="1" transform="matrix(1,0,0,1,0,0)"><g opacity="1" transform="matrix(1,0,0,1,215.0050048828125,321.81500244140625)"><path class="primary" fill="rgb(146,20,12)" fill-opacity="1" d=" M37.1671028137207,-13.045000076293945 C37.1671028137207,-13.045000076293945 37.1671028137207,53.39500045776367 37.1671028137207,53.39500045776367 C37.1671028137207,53.39500045776367 -42.558799743652344,53.39500045776367 -42.558799743652344,53.39500045776367 C-42.558799743652344,53.39500045776367 -42.558799743652344,-13.045000076293945 -42.558799743652344,-13.045000076293945 C-42.558799743652344,-33.64500045776367 -27.3231143951416,-50.62594985961914 -7.641055107116699,-53.095001220703125 C-6.020658016204834,-53.29499816894531 -4.370593070983887,-53.39500045776367 -2.7007899284362793,-53.39500045776367 C-1.0309866666793823,-53.39500045776367 0.6190779209136963,-53.29509353637695 2.2394752502441406,-53.095001220703125 C11.2801513671875,-51.95500183105469 19.372304916381836,-47.76499938964844 25.48833656311035,-41.57500076293945 C32.70111083984375,-34.275001525878906 37.1671028137207,-24.19499969482422 37.1671028137207,-13.045000076293945z"/></g><g opacity="0.5" transform="matrix(1,0,0,1,215,321.81500244140625)" style="mix-blend-mode: multiply;"><path class="primary" fill="rgb(146,20,12)" fill-opacity="1" d=" M2.2444751262664795,-53.095001220703125 C2.2444751262664795,-53.095001220703125 2.2444751262664795,52.505001068115234 2.2444751262664795,52.505001068115234 C2.2444751262664795,52.80500030517578 2.214831590652466,53.10499954223633 2.1654255390167236,53.39500045776367 C2.1654255390167236,53.39500045776367 -7.557005405426025,53.39500045776367 -7.557005405426025,53.39500045776367 C-7.606411457061768,53.10499954223633 -7.636054992675781,52.80500030517578 -7.636054992675781,52.505001068115234 C-7.636054992675781,52.505001068115234 -7.636054992675781,-53.095001220703125 -7.636054992675781,-53.095001220703125 C-6.015657901763916,-53.29499816894531 -4.365593433380127,-53.39500045776367 -2.6957900524139404,-53.39500045776367 C-1.025986671447754,-53.39500045776367 0.6240779161453247,-53.29499816894531 2.2444751262664795,-53.095001220703125z"/></g></g><g opacity="1" transform="matrix(1,0,0,1,0,0)"><g opacity="1" transform="matrix(1,0,0,1,116.0790023803711,168.2989959716797)"><path class="secondary" fill="rgb(58,51,71)" fill-opacity="1" d=" M69.86398315429688,-33.36000061035156 C69.86398315429688,-33.36000061035156 3.9411633014678955,33.36000061035156 3.9411633014678955,33.36000061035156 C3.9411633014678955,33.36000061035156 -69.92559051513672,33.36000061035156 -69.92559051513672,33.36000061035156 C-72.22774505615234,33.36000061035156 -73.65054321289062,30.81999969482422 -72.46487426757812,28.81999969482422 C-72.46487426757812,28.81999969482422 -36.47014617919922,-31.889999389648438 -36.47014617919922,-31.889999389648438 C-35.93661117553711,-32.790000915527344 -34.968299865722656,-33.349998474121094 -33.93084716796875,-33.349998474121094 C-33.93084716796875,-33.349998474121094 69.86398315429688,-33.349998474121094 69.86398315429688,-33.349998474121094 C69.86398315429688,-33.349998474121094 69.86398315429688,-33.36000061035156 69.86398315429688,-33.36000061035156z"/></g><g opacity="1" transform="matrix(1,0,0,1,313.8810119628906,168.29400634765625)"><path class="secondary" fill="rgb(58,51,71)" fill-opacity="1" d=" M64.54116821289062,33.36317443847656 C64.54116821289062,33.36317443847656 -9.330058097839355,33.36167526245117 -9.330058097839355,33.36167526245117 C-9.330058097839355,33.36167526245117 -75.25508880615234,-33.35499954223633 -75.25508880615234,-33.35499954223633 C-75.25508880615234,-33.35499954223633 28.53974151611328,-33.35499954223633 28.53974151611328,-33.35499954223633 C29.57719612121582,-33.35499954223633 30.54550552368164,-32.80500030517578 31.079042434692383,-31.895000457763672 C31.079042434692383,-31.895000457763672 67.07376861572266,28.815000534057617 67.07376861572266,28.815000534057617 C68.25943756103516,30.815000534057617 66.84331512451172,33.36317443847656 64.54116821289062,33.36317443847656z"/></g><g opacity="0.5" transform="matrix(1,0,0,1,78.92400360107422,168.3040008544922)" style="mix-blend-mode: multiply;"><path class="secondary" fill="rgb(58,51,71)" fill-opacity="1" d=" M33.586978912353516,-33.35499954223633 C33.586978912353516,-33.35499954223633 -5.96474027633667,33.35499954223633 -5.96474027633667,33.35499954223633 C-5.96474027633667,33.35499954223633 -32.77059555053711,33.35499954223633 -32.77059555053711,33.35499954223633 C-35.07274627685547,33.35499954223633 -36.49554443359375,30.815000534057617 -35.309871673583984,28.815000534057617 C-35.309871673583984,28.815000534057617 0.6848531365394592,-31.895000457763672 0.6848531365394592,-31.895000457763672 C1.2183902263641357,-32.79499816894531 2.186699867248535,-33.35499954223633 3.224153995513916,-33.35499954223633 C3.224153995513916,-33.35499954223633 33.596858978271484,-33.35499954223633 33.596858978271484,-33.35499954223633 C33.596858978271484,-33.35499954223633 33.586978912353516,-33.35499954223633 33.586978912353516,-33.35499954223633z"/></g></g><g opacity="1" transform="matrix(1,0,0,1,0,0)"><g opacity="1" transform="matrix(1,0,0,1,215,188.27000427246094)"><path class="quaternary" fill="rgb(242,139,168)" fill-opacity="1" d=" M23.62590980529785,0 C23.62590980529785,14.710000038146973 11.83845043182373,26.639999389648438 -2.6957900524139404,26.639999389648438 C-17.230030059814453,26.639999389648438 -29.017488479614258,14.710000038146973 -29.017488479614258,0 C-29.017488479614258,-14.710000038146973 -17.230030059814453,-26.639999389648438 -2.6957900524139404,-26.639999389648438 C11.83845043182373,-26.639999389648438 23.62590980529785,-14.710000038146973 23.62590980529785,0z"/></g><g opacity="1" transform="matrix(1,0,0,1,220.03500366210938,180.62399291992188)"><path stroke-linecap="round" stroke-linejoin="round" fill-opacity="0" class="primary" stroke="rgb(146,20,12)" stroke-opacity="1" stroke-width="7" d=" M-7.730790138244629,7.645999908447266 C-7.730790138244629,7.645999908447266 2.178800344467163,7.828649997711182 2.178800344467163,7.828649997711182 M-7.676360130310059,7.643570423126221 C-7.676360130310059,7.643570423126221 -7.703694820404053,-7.542736530303955 -7.703694820404053,-7.542736530303955"/></g></g><g opacity="1" transform="matrix(1,0,0,1,0,0)"><g opacity="1" transform="matrix(1,0,0,1,128.25999450683594,254.1790008544922)"><path class="tertiary" fill="rgb(75,179,253)" fill-opacity="1" d=" M15.157242774963379,20.020000457763672 C15.157242774963379,20.020000457763672 -18.466161727905273,20.020000457763672 -18.466161727905273,20.020000457763672 C-20.106321334838867,20.020000457763672 -21.430330276489258,18.68000030517578 -21.430330276489258,17.020000457763672 C-21.430330276489258,17.020000457763672 -21.430330276489258,0 -21.430330276489258,0 C-21.430330276489258,-11.050000190734863 -12.577396392822266,-20.020000457763672 -1.659411907196045,-20.020000457763672 C9.258548736572266,-20.020000457763672 18.11150550842285,-11.0600004196167 18.11150550842285,0 C18.11150550842285,0 18.11150550842285,17.020000457763672 18.11150550842285,17.020000457763672 C18.11150550842285,18.68000030517578 16.787521362304688,20.020000457763672 15.147361755371094,20.020000457763672 C15.147361755371094,20.020000457763672 15.157242774963379,20.020000457763672 15.157242774963379,20.020000457763672z"/></g><g opacity="1" transform="matrix(1,0,0,1,301.7300109863281,254.1790008544922)"><path class="tertiary" fill="rgb(75,179,253)" fill-opacity="1" d=" M13.08458137512207,20.020000457763672 C13.08458137512207,20.020000457763672 -20.538822174072266,20.020000457763672 -20.538822174072266,20.020000457763672 C-22.17898178100586,20.020000457763672 -23.502967834472656,18.68000030517578 -23.502967834472656,17.020000457763672 C-23.502967834472656,17.020000457763672 -23.502967834472656,0 -23.502967834472656,0 C-23.502967834472656,-11.050000190734863 -14.650010108947754,-20.020000457763672 -3.7320492267608643,-20.020000457763672 C7.185911655426025,-20.020000457763672 16.038867950439453,-11.0600004196167 16.038867950439453,0 C16.038867950439453,0 16.038867950439453,17.020000457763672 16.038867950439453,17.020000457763672 C16.038867950439453,18.68000030517578 14.714859962463379,20.020000457763672 13.074700355529785,20.020000457763672 C13.074700355529785,20.020000457763672 13.08458137512207,20.020000457763672 13.08458137512207,20.020000457763672z"/></g><g opacity="0.5" transform="matrix(1,0,0,1,118.26499938964844,254.18499755859375)" style="mix-blend-mode: multiply;"><path class="tertiary" fill="rgb(75,179,253)" fill-opacity="1" d=" M8.34546947479248,-20.014999389648438 C8.34546947479248,-20.014999389648438 8.34546947479248,20.014999389648438 8.34546947479248,20.014999389648438 C8.34546947479248,20.014999389648438 -8.46127986907959,20.014999389648438 -8.46127986907959,20.014999389648438 C-10.101439476013184,20.014999389648438 -11.425448417663574,18.674999237060547 -11.425448417663574,17.014999389648438 C-11.425448417663574,17.014999389648438 -11.425448417663574,0.004999999888241291 -11.425448417663574,0.004999999888241291 C-11.425448417663574,-11.055000305175781 -2.5725152492523193,-20.014999389648438 8.34546947479248,-20.014999389648438z"/></g><g opacity="0.5" transform="matrix(1,0,0,1,291.7300109863281,254.18499755859375)" style="mix-blend-mode: multiply;"><path class="tertiary" fill="rgb(75,179,253)" fill-opacity="1" d=" M6.27783203125,-20.014999389648438 C6.27783203125,-20.014999389648438 6.27783203125,20.014999389648438 6.27783203125,20.014999389648438 C6.27783203125,20.014999389648438 -10.538822174072266,20.014999389648438 -10.538822174072266,20.014999389648438 C-12.17898178100586,20.014999389648438 -13.50296688079834,18.674999237060547 -13.50296688079834,17.014999389648438 C-13.50296688079834,17.014999389648438 -13.50296688079834,0.004999999888241291 -13.50296688079834,0.004999999888241291 C-13.50296688079834,-11.055000305175781 -4.650010108947754,-20.014999389648438 6.27783203125,-20.014999389648438z"/></g></g></g><g transform="matrix(1,0,0,1,214.91761779785156,242)" opacity="1" style="display: block;"><path stroke-linecap="round" stroke-linejoin="round" fill-opacity="0" class="quinary" stroke="rgb(235,230,239)" stroke-opacity="1" stroke-width="7" d=" M133.74,102.67 C133.74,102.67 131.16,102.67 131.16,102.67 M139.02,102.67 C139.02,102.67 136.44,102.67 136.44,102.67 M141.99,102.67 C141.99,102.67 139.41,102.67 139.41,102.67"/><path stroke-linecap="round" stroke-linejoin="round" fill-opacity="0" class="quinary" stroke="rgb(235,230,239)" stroke-opacity="0.5" stroke-width="7" d=" M133.74,102.67 C133.74,102.67 131.16,102.67 131.16,102.67 M139.02,102.67 C139.02,102.67 136.44,102.67 136.44,102.67 M141.99,102.67 C141.99,102.67 139.41,102.67 139.41,102.67" style="mix-blend-mode: multiply;"/><g opacity="1" transform="matrix(1,0,0,1,0,40)"/></g><g transform="matrix(1,0,0,1,214.91761779785156,242)" opacity="1" style="display: block;"><g opacity="1" transform="matrix(1,0,0,1,0,0)"><path class="tertiary" fill="rgb(75,179,253)" fill-opacity="1" d=" M133.7421112060547,79.67415618896484 C133.7421112060547,79.67415618896484 131.16358947753906,79.67415618896484 131.16358947753906,79.67415618896484 C131.16358947753906,79.67415618896484 131.16358947753906,13.659153938293457 131.16358947753906,13.659153938293457 C131.16358947753906,2.605153799057007 131.7402801513672,-6.354924201965332 132.452392578125,-6.354924201965332 C132.452392578125,-6.354924201965332 132.452392578125,-6.354924201965332 132.452392578125,-6.354924201965332 C133.1645050048828,-6.354924201965332 133.7421112060547,2.605153799057007 133.7421112060547,13.659153938293457 C133.7421112060547,13.659153938293457 133.7421112060547,79.67415618896484 133.7421112060547,79.67415618896484z M136.71243286132812,79.67415618896484 C136.71243286132812,79.67415618896484 134.1339111328125,79.67415618896484 134.1339111328125,79.67415618896484 C134.1339111328125,79.67415618896484 134.1339111328125,13.659153938293457 134.1339111328125,13.659153938293457 C134.1339111328125,2.605153799057007 134.71060180664062,-6.354924201965332 135.42271423339844,-6.354924201965332 C135.42271423339844,-6.354924201965332 135.42271423339844,-6.354924201965332 135.42271423339844,-6.354924201965332 C136.1348114013672,-6.354924201965332 136.71243286132812,2.605153799057007 136.71243286132812,13.659153938293457 C136.71243286132812,13.659153938293457 136.71243286132812,79.67415618896484 136.71243286132812,79.67415618896484z M141.98614501953125,79.67415618896484 C141.98614501953125,79.67415618896484 139.40855407714844,79.67415618896484 139.40855407714844,79.67415618896484 C139.40855407714844,79.67415618896484 139.40855407714844,13.659153938293457 139.40855407714844,13.659153938293457 C139.40855407714844,2.605153799057007 139.98524475097656,-6.354924201965332 140.69735717773438,-6.354924201965332 C140.69735717773438,-6.354924201965332 140.69735717773438,-6.354924201965332 140.69735717773438,-6.354924201965332 C141.4094696044922,-6.354924201965332 141.98614501953125,2.605153799057007 141.98614501953125,13.659153938293457 C141.98614501953125,13.659153938293457 141.98614501953125,79.67415618896484 141.98614501953125,79.67415618896484z"/></g></g><g mask="url(#__lottie_element_2505_2)" style="mix-blend-mode: multiply; display: block;"><g transform="matrix(1,0,0,1,214.91761779785156,242)" opacity="0.5"><g opacity="1" transform="matrix(1,0,0,1,0,0)"><path class="tertiary" fill="rgb(75,179,253)" fill-opacity="1" d=" M133.7421112060547,79.67415618896484 C133.7421112060547,79.67415618896484 131.16358947753906,79.67415618896484 131.16358947753906,79.67415618896484 C131.16358947753906,79.67415618896484 131.16358947753906,13.659153938293457 131.16358947753906,13.659153938293457 C131.16358947753906,2.605153799057007 131.7402801513672,-6.354924201965332 132.452392578125,-6.354924201965332 C132.452392578125,-6.354924201965332 132.452392578125,-6.354924201965332 132.452392578125,-6.354924201965332 C133.1645050048828,-6.354924201965332 133.7421112060547,2.605153799057007 133.7421112060547,13.659153938293457 C133.7421112060547,13.659153938293457 133.7421112060547,79.67415618896484 133.7421112060547,79.67415618896484z M136.71243286132812,79.67415618896484 C136.71243286132812,79.67415618896484 134.1339111328125,79.67415618896484 134.1339111328125,79.67415618896484 C134.1339111328125,79.67415618896484 134.1339111328125,13.659153938293457 134.1339111328125,13.659153938293457 C134.1339111328125,2.605153799057007 134.71060180664062,-6.354924201965332 135.42271423339844,-6.354924201965332 C135.42271423339844,-6.354924201965332 135.42271423339844,-6.354924201965332 135.42271423339844,-6.354924201965332 C136.1348114013672,-6.354924201965332 136.71243286132812,2.605153799057007 136.71243286132812,13.659153938293457 C136.71243286132812,13.659153938293457 136.71243286132812,79.67415618896484 136.71243286132812,79.67415618896484z M141.98614501953125,79.67415618896484 C141.98614501953125,79.67415618896484 139.40855407714844,79.67415618896484 139.40855407714844,79.67415618896484 C139.40855407714844,79.67415618896484 139.40855407714844,13.659153938293457 139.40855407714844,13.659153938293457 C139.40855407714844,2.605153799057007 139.98524475097656,-6.354924201965332 140.69735717773438,-6.354924201965332 C140.69735717773438,-6.354924201965332 140.69735717773438,-6.354924201965332 140.69735717773438,-6.354924201965332 C141.4094696044922,-6.354924201965332 141.98614501953125,2.605153799057007 141.98614501953125,13.659153938293457 C141.98614501953125,13.659153938293457 141.98614501953125,79.67415618896484 141.98614501953125,79.67415618896484z"/></g></g></g></g></g></svg>